<?xml version="1.0" encoding="UTF-8" standalone="no"?>
<svg
   xmlns:svg="http://www.w3.org/2000/svg"
   xmlns="http://www.w3.org/2000/svg"
   width="1100.0"
   height="750.0"

>
    <g transform="scale(7.4020300658383285, -7.4020300658383285)   translate(97.89932338643725,-50.417651705512746)" stroke-width="0.4"  fill="none">
       <!-- hidden lines -->
       <g  stroke="rgb(160,160,160)" fill="none" stroke-dasharray="0.4,0.4" >

       </g>

       <!-- solid lines -->
       <g  stroke="rgb(0,0,0)" fill="none">
			<path d="M-12.289382847369957,-6.956080307699349 L-6.964260963607753,-3.887926347032508 " />
			<path d="M-12.289382847369957,-5.451122381159298 L-7.191562909172504,-2.5139320641000005 " />
			<path d="M-83.6307618343872,-8.10184405238588 L-84.25050439299393,-7.94314424525461 " />
			<path d="M-83.63076183438722,-8.101844052385854 L-83.57785450158548,-8.07472893219441 L-83.52233443669675,-8.052825831443544 L-83.46451780780599,-8.036259480920808 L-83.40473386115721,-8.025124220417224 L-83.343323046207,-8.019483461493918 L-83.28063507687946,-8.01936932637463 L-83.217026940063,-8.024782465020452 L-83.15286086269022,-8.035692051428525 " />
			<path d="M-46.49635719808927,-17.61099066798039 L-47.09113824786583,-17.458682848267184 " />
			<path d="M-46.49635719808927,-17.610990667980385 L-46.44100560579958,-17.582777013273912 L-46.38281620055511,-17.560261533033824 L-46.322150825828814,-17.543584236932507 L-46.25938672159737,-17.532848830631075 L-46.19491417852205,-17.52812207089879 L-46.129134110975436,-17.529433350494525 L-46.06245556400605,-17.536774515391603 L-45.99529316974331,-17.550099915482566 " />
			<path d="M-45.178205295668555,-18.89328762138929 L-45.25479103958722,-18.8599324822846 L-45.3299344230473,-18.819280912237403 L-45.40301364423133,-18.77166929775273 L-45.47342398199876,-18.717491618806676 L-45.540582799875466,-18.657196188712845 L-45.603934367295544,-18.59128194438745 L-45.66295445820012,-18.520294317710608 L-45.71715468894048,-18.44482072214778 L-45.766086559589816,-18.365485691979046 L-45.80934516522237,-18.282945714358384 L-45.846572546449494,-18.197883796967034 L-45.87746065148751,-18.111003816212953 L-45.90175388524653,-18.023024692744197 L-45.919251224346866,-17.93467444247319 L-45.92980788056164,-17.846684152338824 L-45.933336498920674,-17.759781930656246 " />
			<path d="M-45.933336498920674,-17.759781930656242 L-45.93014528224803,-17.678807198400882 L-45.92059551414443,-17.600072825533776 " />
			<path d="M-82.33791200550624,-9.373997066947037 L-82.4125418632534,-9.339018320394874 L-82.48560266085424,-9.297133168318808 L-82.55651440608239,-9.248674115473827 L-82.62471416693677,-9.194025853443806 L-82.68966054047031,-9.133622206772198 L-82.75083795071042,-9.067942689051323 L-82.80776074155236,-8.997508696309723 L-82.85997703213422,-8.92287936791633 L-82.90707230408744,-8.84464714785958 L-82.94867269218561,-8.763433081638244 L-82.98444795226906,-8.679881886099505 L-83.01411408288382,-8.594656831362357 L-83.0374355798237,-8.508434475456067 L-83.05422730567741,-8.421899293472737 L-83.06435595953965,-8.335738243870365 L-83.06774113521864,-8.250635315061732 " />
			<path d="M-83.06774113521864,-8.250635315061727 L-83.0649668013427,-8.175073811536056 L-83.05666184958169,-8.101424780744082 " />
			<path d="M-45.17241280680751,-18.99569275972043 L-45.194881936117575,-19.05857160064968 L-45.222052964404256,-19.11811973100967 L-45.25376412767658,-19.173982628214066 L-45.28982663203708,-19.225827709884936 L-45.33002577767504,-19.27334631389752 L-45.37412223709197,-19.31625553601467 L-45.42185347994902,-19.354299914170483 L-45.47293533605372,-19.3872529493757 " />
			<path d="M-45.47293533605373,-19.387252949375704 L-45.52133394117934,-19.41230758187662 L-45.57195009167598,-19.43299144595401 L-45.624541524163284,-19.449205542715593 L-45.67885652099605,-19.460872266854523 L-45.73463511505691,-19.46793577809057 L-45.79161033403334,-19.4703622684377 L-45.84950947822355,-19.468140124018756 L-45.908055425755315,-19.461279980652808 L-45.96696795897049,-19.44981467294907 L-46.02596510562699,-19.433799077151075 L-46.08476448849854,-19.41330984848326 L-46.14308467691299,-19.388445054257126 L-46.20064653375993,-19.359323704493043 L-46.25717455152087,-19.3260851823042 L-46.312398170927004,-19.288888576769185 L-46.36605307593332,-19.247911921486093 L-46.41788245881082,-19.203351342452798 L-46.4676382493018,-19.155420119351803 L-46.51508230195508,-19.10434766473264 L-46.5599875359583,-19.05037842597778 L-46.602139022011634,-18.993770715307488 L-46.641335011040965,-18.934795473423634 L-46.677387899826655,-18.87373497270995 L-46.710125128926244,-18.810881466195646 L-46.73939000859333,-18.746535788748766 L-46.76504246873954,-18.681005917194433 L-46.786959729349995,-18.614605496249624 L-46.8050368881437,-18.547652337329826 L-46.81918742266578,-18.480466897412626 L-46.829343604408756,-18.413370745238947 L-46.83545682298056,-18.346685022193014 L-46.837497818767794,-18.280728905227804 " />
			<path d="M-46.837497818767794,-18.2807289052278 L-46.83606590139723,-18.226278551239243 L-46.8317749575956,-18.172744391866246 L-46.82463939614708,-18.120306192256855 L-46.8146831779259,-18.06914003737862 L-46.80193973543691,-18.019417740733687 L-46.786451860550805,-17.971306267417283 L-46.768271560811066,-17.9249671734569 L-46.747459884795134,-17.88055606331487 L-46.7240867171162,-17.83822206737604 L-46.69823054375401,-17.798107341175047 L-46.66997818850269,-17.760346588044847 L-46.6394245214206,-17.725066606789344 L-46.60667214026123,-17.69238586589908 L-46.57183102595482,-17.662414105739703 L-46.53501817329769,-17.635251970049072 L-46.49635719808928,-17.610990667980385 " />
			<path d="M-82.33194875905103,-9.55590666536555 L-82.35551181900534,-9.607112836357276 L-82.3824509685682,-9.655590251182936 L-82.41264709270702,-9.701124560505619 L-82.44596667524297,-9.74351442832081 L-82.48226238921055,-9.782572422190315 L-82.52137374828327,-9.818125841999716 L-82.56312781638539,-9.850017483574893 L-82.6073399723517,-9.878106333781183 " />
			<path d="M-82.6073399723517,-9.878106333781187 L-82.65573857747731,-9.903160966282107 L-82.70635472797395,-9.923844830359494 L-82.75894616046125,-9.940058927121079 L-82.81326115729402,-9.951725651260006 L-82.86903975135488,-9.958789162496053 L-82.92601497033131,-9.961215652843183 L-82.98391411452153,-9.958993508424241 L-83.04246006205328,-9.952133365058293 L-83.10137259526846,-9.940668057354557 L-83.16036974192495,-9.924652461556562 L-83.21916912479651,-9.904163232888743 L-83.27748931321095,-9.879298438662612 L-83.3350511700579,-9.850177088898526 L-83.39157918781883,-9.816938566709688 L-83.44680280722497,-9.779741961174672 L-83.50045771223128,-9.73876530589158 L-83.55228709510878,-9.694204726858283 L-83.60204288559977,-9.646273503757286 L-83.64948693825305,-9.595201049138126 L-83.69439217225626,-9.541231810383266 L-83.7365436583096,-9.484624099712974 L-83.77573964733892,-9.425648857829117 L-83.81179253612461,-9.364588357115435 L-83.84452976522421,-9.30173485060113 L-83.8737946448913,-9.23738917315425 L-83.8994471050375,-9.171859301599916 L-83.92136436564796,-9.10545888065511 L-83.93944152444166,-9.03850572173531 L-83.95359205896374,-8.97132028181811 L-83.96374824070672,-8.904224129644431 L-83.96986145927853,-8.837538406598497 L-83.97190245506576,-8.77158228963329 " />
			<path d="M-83.97190245506576,-8.771582289633285 L-83.97047053769519,-8.717131935644725 L-83.96617959389357,-8.663597776271727 L-83.95904403244505,-8.611159576662335 L-83.94908781422387,-8.559993421784098 L-83.93634437173488,-8.510271125139164 L-83.92085649684877,-8.462159651822759 L-83.90267619710903,-8.415820557862371 L-83.88186452109309,-8.371409447720342 L-83.85849135341417,-8.32907545178151 L-83.83263518005197,-8.288960725580518 L-83.80438282480064,-8.251199972450317 L-83.77382915771855,-8.215919991194813 L-83.74107677655918,-8.183239250304549 L-83.70623566225277,-8.153267490145174 L-83.66942280959564,-8.126105354454543 L-83.63076183438722,-8.101844052385855 " />
			<path d="M-94.8426395505897,-10.622772867984704 L-96.54834265398227,-10.185987061084218 " />
			<path d="M-94.8426395505897,-10.622772867984704 L-94.8426395505897,14.90611465890639 " />
			<path d="M-94.8426395505897,14.906114658906393 L-96.54834265398227,15.34290046580688 " />
			<path d="M-96.54834265398227,-10.185987061084216 L-96.54834265398227,15.342900465806878 " />
			<path d="M-33.27091776958925,-26.38967516585596 L-94.84263955058968,-10.622772867984704 " />
			<path d="M-33.27091776958925,-0.8607876389648659 L-73.66695955969156,9.48357866592229 " />
			<path d="M-33.27091776958925,-26.38967516585596 L-33.27091776958925,-0.8607876389648652 " />
			<path d="M-73.66695955969156,9.48357866592229 L-94.84263955058968,14.90611465890639 " />
			<path d="M-49.387731970913286,-18.550967928846724 L-49.38497580811095,-18.427088949147265 L-49.37671395954157,-18.304919966703608 L-49.362966328721974,-18.1847552972952 L-49.34376603489898,-18.06688442813583 L-49.31915933326214,-17.951591320473568 L-49.289205503511,-17.83915372550326 L-49.25397670704507,-17.72984251523955 L-49.21355781312071,-17.623921029962506 L-49.16804619439367,-17.52164444380778 L-49.11755149233981,-17.423259150029793 L-49.06219535311918,-17.32900216741879 L-49.00211113451981,-17.239100569301815 L-48.93744358468703,-17.153770936503186 L-48.868348493412626,-17.073218835582303 L-48.794992316823475,-16.997638323605816 L-48.71755177637423,-16.927211480647152 L-48.63621343310982,-16.862107971139654 L-48.551173238223576,-16.802484635140125 L-48.4626360609936,-16.748485110487376 L-48.3708151952348,-16.70023948676609 L-48.27593184545534,-16.657863991909636 L-48.17821459395563,-16.62146071219677 L-48.07789885015357,-16.591117346316878 L-47.97522628346258,-16.56690699409613 L-47.8704442410889,-16.548887980393594 L-47.763805152150404,-16.537103714591566 L-47.65556591955284,-16.531582586018537 L-47.545987301088175,-16.532337895556843 L-47.43533328124623,-16.53936782359964 L-47.323870435252964,-16.552655434434527 L-47.21186728686737,-16.572168717043144 L-47.099593661484214,-16.597860662218526 L-46.98732003610106,-16.629669375814398 L-46.875316887715464,-16.667518227853595 L-46.7638540417222,-16.71131603713638 L-46.65320002188026,-16.760957290903963 L-46.543621403415585,-16.816322399027953 L-46.43538217081802,-16.877277982113473 L-46.32874308187953,-16.943677192821784 L-46.223961039505845,-17.01536006963841 L-46.12128847281486,-17.092153922234427 L-46.0209727290128,-17.173873747492575 L-45.92325547751309,-17.260322675196 L-45.82837212773363,-17.351292442305834 L-45.736551261974824,-17.446563894685095 L-45.64801408474486,-17.545907515060208 L-45.562973889858604,-17.64908397594822 L-45.4816355465942,-17.75584471621766 L-45.40419500614495,-17.865932539894082 L-45.3308388295558,-17.97908223576769 L-45.261743738281396,-18.09502121631039 L-45.19707618844863,-18.213470174362993 L-45.13699196984925,-18.33414375601065 L-45.08163583062862,-18.456751248025412 L-45.03114112857476,-18.58099727821987 L-44.98562950984772,-18.706582527024615 L-44.945210615923365,-18.833204448575312 L-44.90998181945743,-18.960557999572174 L-44.880027989706285,-19.088336374155997 L-44.85542128806945,-19.21623174303034 L-44.83622099424645,-19.343935995049282 L-44.82247336342686,-19.471141479484125 L-44.814211514857476,-19.59754174718099 L-44.81145535205514,-19.72283228882364 L-44.814211514857476,-19.846711268523098 L-44.82247336342686,-19.968880250966752 L-44.83622099424645,-20.08904492037516 L-44.85542128806945,-20.206915789534534 L-44.880027989706285,-20.3222088971968 L-44.90998181945743,-20.434646492167108 L-44.945210615923365,-20.543957702430813 L-44.98562950984772,-20.649879187707857 L-45.03114112857476,-20.752155773862583 L-45.08163583062862,-20.85054106764057 L-45.13699196984924,-20.94479805025157 L-45.19707618844862,-21.034699648368548 L-45.261743738281396,-21.120029281167177 L-45.3308388295558,-21.20058138208806 L-45.404195006144946,-21.276161894064547 L-45.48163554659419,-21.34658873702321 L-45.562973889858604,-21.41169224653071 L-45.64801408474485,-21.471315582530238 L-45.736551261974824,-21.525315107182987 L-45.82837212773362,-21.573560730904273 L-45.92325547751309,-21.615936225760727 L-46.0209727290128,-21.65233950547359 L-46.12128847281486,-21.682682871353485 L-46.223961039505845,-21.706893223574234 L-46.32874308187953,-21.72491223727677 L-46.43538217081802,-21.736696503078797 L-46.543621403415585,-21.742217631651826 L-46.65320002188025,-21.74146232211352 L-46.7638540417222,-21.734432394070723 L-46.875316887715464,-21.721144783235836 L-46.98732003610106,-21.70163150062722 L-47.099593661484214,-21.675939555451837 L-47.21186728686737,-21.644130841855965 L-47.323870435252964,-21.60628198981677 L-47.43533328124623,-21.562484180533982 L-47.54598730108817,-21.5128429267664 L-47.65556591955284,-21.45747781864241 L-47.763805152150404,-21.39652223555689 L-47.8704442410889,-21.33012302484858 L-47.97522628346258,-21.25844014803195 L-48.07789885015357,-21.181646295435936 L-48.17821459395563,-21.099926470177788 L-48.27593184545534,-21.013477542474362 L-48.3708151952348,-20.92250777536453 L-48.4626360609936,-20.827236322985268 L-48.55117323822357,-20.727892702610156 L-48.63621343310982,-20.624716241722144 L-48.71755177637423,-20.517955501452704 L-48.794992316823475,-20.40786767777628 L-48.868348493412626,-20.29471798190267 L-48.93744358468703,-20.178779001359974 L-49.0021111345198,-20.06033004330737 L-49.06219535311918,-19.939656461659713 L-49.11755149233981,-19.81704896964495 L-49.16804619439367,-19.692802939450495 L-49.21355781312071,-19.567217690645748 L-49.25397670704506,-19.44059576909505 L-49.289205503511,-19.31324221809819 L-49.31915933326214,-19.185463843514366 L-49.34376603489898,-19.057568474640025 L-49.362966328721974,-18.929864222621088 L-49.37671395954157,-18.802658738186242 L-49.38497580811095,-18.676258470489373 L-49.387731970913286,-18.55096792884677 " />
			<path d="M-86.5470981160414,-9.035429325834151 L-86.54434195323907,-8.911550346134693 L-86.53608010466968,-8.789381363691035 L-86.52233247385008,-8.669216694282628 L-86.5031321800271,-8.551345825123256 L-86.47852547839025,-8.436052717460996 L-86.4485716486391,-8.323615122490684 L-86.41334285217317,-8.21430391222698 L-86.37292395824882,-8.108382426949934 L-86.32741233952179,-8.006105840795207 L-86.27691763746792,-7.907720547017221 L-86.2215614982473,-7.813463564406218 L-86.16147727964791,-7.723561966289243 L-86.09680972981515,-7.638232333490612 L-86.02771463854074,-7.557680232569729 L-85.95435846195159,-7.482099720593244 L-85.87691792150234,-7.411672877634578 L-85.79557957823793,-7.346569368127081 L-85.71053938335169,-7.2869460321275525 L-85.6220022061217,-7.232946507474802 L-85.53018134036292,-7.184700883753518 L-85.43529799058345,-7.142325388897062 L-85.33758073908375,-7.105922109184198 L-85.23726499528168,-7.075578743304306 L-85.1345924285907,-7.051368391083555 L-85.02981038621701,-7.03334937738102 L-84.92317129727851,-7.021565111578992 L-84.81493206468095,-7.016043983005966 L-84.70535344621628,-7.016799292544269 L-84.59469942637435,-7.023829220587066 L-84.48323658038107,-7.037116831421953 L-84.37123343199548,-7.05663011403057 L-84.25895980661232,-7.0823220592059535 L-84.14668618122917,-7.1141307728018255 L-84.03468303284357,-7.151979624841021 L-83.9232201868503,-7.1957774341238085 L-83.81256616700837,-7.245418687891391 L-83.7029875485437,-7.300783796015382 L-83.59474831594613,-7.361739379100899 L-83.48810922700764,-7.428138589809213 L-83.38332718463396,-7.499821466625841 L-83.28065461794297,-7.576615319221855 L-83.1803388741409,-7.658335144480003 L-83.0826216226412,-7.744784072183428 L-82.98773827286173,-7.83575383929326 L-82.89591740710294,-7.931025291672521 L-82.80738022987296,-8.030368912047637 L-82.72234003498671,-8.133545372935648 L-82.64100169172231,-8.240306113205088 L-82.56356115127306,-8.35039393688151 L-82.4902049746839,-8.46354363275512 L-82.4211098834095,-8.579482613297818 L-82.35644233357674,-8.69793157135042 L-82.29635811497735,-8.818605152998076 L-82.24100197575673,-8.94121264501284 L-82.19050727370286,-9.065458675207298 L-82.14499565497583,-9.191043924012044 L-82.10457676105148,-9.317665845562741 L-82.06934796458555,-9.445019396559603 L-82.0393941348344,-9.572797771143422 L-82.01478743319755,-9.70069314001777 L-81.99558713937456,-9.828397392036708 L-81.98183950855497,-9.955602876471554 L-81.97357765998558,-10.082003144168418 L-81.97082149718325,-10.207293685811067 L-81.97357765998558,-10.331172665510525 L-81.98183950855497,-10.453341647954181 L-81.99558713937456,-10.573506317362588 L-82.01478743319755,-10.691377186521962 L-82.0393941348344,-10.806670294184224 L-82.06934796458555,-10.919107889154535 L-82.10457676105148,-11.02841909941824 L-82.14499565497583,-11.134340584695284 L-82.19050727370286,-11.23661717085001 L-82.24100197575673,-11.335002464627996 L-82.29635811497735,-11.429259447239 L-82.35644233357674,-11.519161045355974 L-82.4211098834095,-11.604490678154605 L-82.4902049746839,-11.685042779075488 L-82.56356115127306,-11.760623291051974 L-82.64100169172231,-11.83105013401064 L-82.72234003498671,-11.896153643518137 L-82.80738022987296,-11.955776979517665 L-82.89591740710293,-12.009776504170414 L-82.98773827286173,-12.0580221278917 L-83.0826216226412,-12.100397622748156 L-83.1803388741409,-12.136800902461019 L-83.28065461794297,-12.167144268340913 L-83.38332718463396,-12.191354620561663 L-83.48810922700764,-12.209373634264196 L-83.59474831594613,-12.221157900066226 L-83.70298754854369,-12.226679028639252 L-83.81256616700837,-12.225923719100948 L-83.9232201868503,-12.218893791058152 L-84.03468303284357,-12.205606180223265 L-84.14668618122917,-12.186092897614648 L-84.25895980661232,-12.160400952439264 L-84.37123343199548,-12.128592238843392 L-84.48323658038107,-12.090743386804197 L-84.59469942637433,-12.04694557752141 L-84.70535344621628,-11.997304323753827 L-84.81493206468095,-11.941939215629837 L-84.92317129727851,-11.88098363254432 L-85.02981038621701,-11.814584421836006 L-85.1345924285907,-11.742901545019377 L-85.23726499528168,-11.666107692423363 L-85.33758073908375,-11.584387867165216 L-85.43529799058345,-11.49793893946179 L-85.53018134036292,-11.406969172351957 L-85.6220022061217,-11.311697719972697 L-85.71053938335169,-11.212354099597581 L-85.79557957823793,-11.10917763870957 L-85.87691792150234,-11.00241689844013 L-85.95435846195159,-10.892329074763708 L-86.02771463854074,-10.779179378890099 L-86.09680972981515,-10.663240398347401 L-86.16147727964791,-10.544791440294798 L-86.2215614982473,-10.424117858647142 L-86.27691763746792,-10.301510366632378 L-86.32741233952179,-10.177264336437922 L-86.37292395824882,-10.051679087633174 L-86.41334285217317,-9.925057166082476 L-86.4485716486391,-9.797703615085616 L-86.47852547839025,-9.669925240501795 L-86.5031321800271,-9.542029871627452 L-86.52233247385008,-9.414325619608515 L-86.53608010466968,-9.28712013517367 L-86.54434195323907,-9.1607198674768 L-86.5470981160414,-9.035429325834196 " />
			<path d="M-47.76523389695449,0.6626360290051286 L-47.764116302909166,0.7051338662644909 L-47.76076727360058,0.7469166247995118 L-47.75519805490905,0.7878440001044017 L-47.74742734800472,0.8277785600093659 L-47.7374812465499,0.8665862061712635 L-47.72539314907782,0.9041366243694322 L-47.711203646841916,0.9403037220946111 L-47.69496038751242,0.9749660519615602 L-47.67671791517764,1.008007219523574 L-47.656537487187634,1.0393162741194695 L-47.63448686845489,1.0687880814406023 L-47.61064010390302,1.0963236765668487 L-47.585077269827416,1.121830596286079 L-47.55788420500291,1.145223189581201 L-47.52915222244125,1.1664229052421817 L-47.49897780276638,1.1853585556372557 " />
			<path d="M-47.498977802766376,1.185358555637257 L-47.44485933706804,1.2120938937544397 L-47.38741577417242,1.2318960967218204 L-47.32720032699203,1.2445744584998386 L-47.264792903200345,1.2500068795338741 L-47.20079452040384,1.2481410426397057 L-47.13582151801393,1.2389949168465948 L-47.07049962156147,1.2226565843457093 L-47.005457916617885,1.1992833922104746 L-46.9413227903572,1.1691004370582387 L-46.87871189910513,1.1323983972468004 L-46.81822821997101,1.0895307334829187 L-46.76045424384867,1.040910284802489 L-46.70594636571062,0.9870052927049444 L-46.655229526220374,0.92833489173165 L-46.608792156266865,0.8654641099164827 L-46.567081473108,0.7989984272569884 L-46.530499173423955,0.7295779446110158 L-46.49939756475863,0.6578712191755406 L-46.474076172605336,0.5845688259153908 L-46.454778855812584,0.5103767069488263 L-46.441691458090084,0.43600937293903264 L-46.43494001823219,0.3621830219658438 L-46.43458955629546,0.2896086421467204 L-46.440643447419916,0.21898516443251154 L-46.45304338932464,0.15099273152032566 L-46.47166996379059,0.08628614770755239 L-46.496343786723344,0.025488572768524898 L-46.52682723571997,-0.03081447941475879 L-46.56282673850268,-0.0820807796713946 L-46.603995600180355,-0.12781660550490082 L-46.64993734210984,-0.167581495910755 L-46.700209520202044,-0.20099249325664548 " />
			<path d="M-46.70020952020205,-0.20099249325664825 L-46.7379840412757,-0.22054732837931712 L-46.777489329468196,-0.23669083204947383 L-46.81853630116561,-0.24934573683900263 L-46.86092849381557,-0.2584514727523122 L-46.90446300625331,-0.26396445713166616 L-46.948931469844666,-0.26585830325625526 L-46.99412104579801,-0.26412394663659244 L-47.039815443871575,-0.2587696883997552 L-47.085795957600496,-0.2498211555578147 L-47.13184251108849,-0.23732117834962319 L-47.1777347123541,-0.22132958524303425 L-47.223252908189764,-0.2019229165787363 L-47.268179235484936,-0.17919405822627887 L-47.31229866398128,-0.15325179700572145 L-47.355400025468995,-0.12422030000278261 L-47.397277024498315,-0.09223852026963719 L-47.43772922576856,-0.05745953175584528 L-47.476563013468834,-0.02004979665262807 L-47.513592517978715,0.019811631342814273 L-47.54864050549342,0.06193396402953444 L-47.581539226315535,0.1061155918697625 L-47.61213121775306,0.15214504894984526 L-47.64027005778092,0.19980202511662193 L-47.665821065858644,0.24885842044485898 L-47.68866194755003,0.29907943698876516 L-47.708683379859266,0.35022470259214833 L-47.72578953448206,0.40204942137833877 L-47.73989853646739,0.4543055454133049 L-47.750942856094376,0.5067429619340453 L-47.758869632088896,0.5591106904598439 L-47.763640924632746,0.6111580840566699 L-47.76523389695449,0.6626360290051253 " />
			<path d="M-84.9246000420826,10.1781746320177 L-84.92348244803728,10.220672469277064 L-84.9201334187287,10.262455227812085 L-84.91456420003716,10.303382603116974 L-84.90679349313284,10.343317163021938 L-84.89684739167801,10.382124809183836 L-84.88475929420592,10.419675227382005 L-84.87056979197003,10.455842325107184 L-84.85432653264053,10.490504654974133 L-84.83608406030575,10.523545822536146 L-84.81590363231575,10.554854877132042 L-84.793853013583,10.584326684453174 L-84.77000624903113,10.611862279579421 L-84.74444341495553,10.637369199298652 L-84.71725035013101,10.660761792593775 L-84.68851836756936,10.681961508254755 L-84.6583439478945,10.700897158649829 " />
			<path d="M-84.6583439478945,10.70089715864983 L-84.60422548219616,10.727632496767011 L-84.54678191930053,10.747434699734393 L-84.48656647212015,10.760113061512412 L-84.42415904832846,10.765545482546447 L-84.36016066553195,10.763679645652278 L-84.29518766314203,10.754533519859168 L-84.22986576668958,10.738195187358283 L-84.164824061746,10.714821995223048 L-84.10068893548531,10.684639040070811 L-84.03807804423323,10.647937000259374 L-83.97759436509912,10.605069336495491 L-83.91982038897679,10.556448887815062 L-83.86531251083873,10.502543895717517 L-83.81459567134848,10.443873494744222 L-83.76815830139498,10.381002712929055 L-83.72644761823611,10.31453703026956 L-83.68986531855207,10.245116547623589 L-83.65876370988674,10.173409822188113 L-83.63344231773345,10.100107428927963 L-83.6141450009407,10.025915309961398 L-83.6010576032182,9.951547975951605 L-83.5943061633603,9.877721624978417 L-83.59395570142357,9.805147245159294 L-83.60000959254802,9.734523767445085 L-83.61240953445275,9.666531334532898 L-83.6310361089187,9.601824750720125 L-83.65570993185145,9.541027175781098 L-83.68619338084808,9.484724123597815 L-83.7221928836308,9.433457823341177 L-83.76336174530846,9.387721997507672 L-83.80930348723795,9.347957107101818 L-83.85957566533015,9.314546109755927 " />
			<path d="M-83.85957566533015,9.314546109755923 L-83.89735018640381,9.294991274633256 L-83.93685547459631,9.278847770963099 L-83.97790244629371,9.26619286617357 L-84.02029463894368,9.25708713026026 L-84.06382915138143,9.251574145880907 L-84.10829761497278,9.249680299756317 L-84.15348719092611,9.25141465637598 L-84.19918158899969,9.256768914612817 L-84.24516210272861,9.265717447454758 L-84.2912086562166,9.27821742466295 L-84.33710085748221,9.29420901776954 L-84.38261905331787,9.313615686433836 L-84.42754538061305,9.336344544786293 L-84.47166480910938,9.362286806006852 L-84.5147661705971,9.39131830300979 L-84.55664316962643,9.423300082742935 L-84.59709537089667,9.458079071256726 L-84.63592915859695,9.495488806359944 L-84.67295866310683,9.535350234355388 L-84.70800665062153,9.577472567042108 L-84.74090537144365,9.621654194882336 L-84.77149736288118,9.667683651962419 L-84.79963620290903,9.715340628129194 L-84.82518721098675,9.764397023457432 L-84.84802809267815,9.814618040001339 L-84.86804952498737,9.865763305604721 L-84.88515567961018,9.917588024390911 L-84.8992646815955,9.969844148425878 L-84.91030900122249,10.022281564946617 L-84.918235777217,10.074649293472417 L-84.92300706976086,10.126696687069243 L-84.9246000420826,10.178174632017697 " />
			<path d="M-73.66695955969156,9.483578665922291 L-73.66695955969156,11.376317162491071 " />
			<path d="M-73.66695955969156,11.376317162491066 L-96.54834265398226,17.235638962375653 " />
			<path d="M-96.54834265398227,15.342900465806874 L-96.54834265398227,17.235638962375653 " />
			<path d="M-96.54834265398227,17.235638962375656 L-88.72152288524428,21.74518608581411 " />
			<path d="M-31.565214666196674,-26.826460972756447 L-33.27091776958925,-26.38967516585596 " />
			<path d="M-31.565214666196674,-26.826460972756447 L-30.42807926393495,-26.171282262405715 " />
			<path d="M-31.565214666196674,-1.2975734458653534 L-31.565214666196674,0.5951650507034263 " />
			<path d="M-31.565214666196674,0.5951650507034252 L-73.66695955969156,11.376317162491068 " />
			<path d="M-31.565214666196674,-1.2975734458653534 L-33.27091776958925,-0.8607876389648659 " />
			<path d="M-31.565214666196674,-26.826460972756447 L-31.565214666196674,-1.2975734458653534 " />
			<path d="M-47.58495633318129,-18.412474868122178 L-47.58293069397415,-18.335447538089586 L-47.57686057835233,-18.25971628824486 L-47.56676636947394,-18.185535420504745 L-47.552681963209835,-18.113154030677 L-47.53465465432297,-18.04281517200856 L-47.51274497765482,-17.97475503902438 L-47.48702650485226,-17.909202174397493 L-47.45758559731753,-17.846376701513645 L-47.42452111621075,-17.786489585307496 L-47.38794409047887,-17.729741923852437 L-47.34797734402578,-17.676324273082884 L-47.30475508327551,-17.62641600691656 L-47.25842244651347,-17.580184714925455 L-47.20913501651905,-17.537785639578047 L-47.15705829812604,-17.49936115494252 L-47.10236716246535,-17.46504028860145 " />
			<path d="M-47.10236716246534,-17.465040288601447 L-47.05413615625353,-17.439266977849694 L-47.0042774433871,-17.41658248826405 L-46.952911137872476,-17.397041468766858 L-46.900160985638784,-17.380690995385674 L-46.846154066423125,-17.367570457843005 L-46.79102048762434,-17.357711464663016 L-46.734893070862874,-17.351137767023825 L-46.677907032001904,-17.347865201538827 L-46.62019965540043,-17.347901652104923 L-46.56190996318324,-17.35124703090951 L-46.50317838032448,-17.357893278642017 L-46.44414639635152,-17.36782438390952 L-46.38495622448435,-17.38101642180957 L-46.32575045903144,-17.397437611567376 L-46.26667173186758,-17.417048393098487 L-46.207862368821196,-17.43980152231249 L-46.149464046798954,-17.46564218492817 L-46.0916174524737,-17.494508128525915 L-46.034461943357925,-17.52632981251924 L-45.978135212079316,-17.56103057568415 L-45.92277295466717,-17.598526820842753 L-45.868508543648744,-17.638728216256183 L-45.815472706743186,-17.681537913241662 L-45.763793211927,-17.726852779489462 L-45.713594559629776,-17.774563647517684 L-45.66499768280179,-17.824555577666263 L-45.618119655575896,-17.876708134996697 L-45.573073411225714,-17.93089567943036 L-45.52996747009947,-17.986987668426433 L-45.48890567818498,-18.04484897147035 L-45.44998695693553,-18.104340195615027 L-45.413305064959516,-18.165318021290684 L-45.37894837214765,-18.227635547574238 L-45.3469996467822,-18.29114264608651 L-45.317535856140964,-18.35568632266461 L-45.2906279810763,-18.421111085938307 L-45.26634084501611,-18.48725932192234 L-45.244732957798455,-18.55397167372233 L-45.225856374716265,-18.621087425439466 L-45.20975657111159,-18.688444889349228 L-45.196472332821486,-18.75588179542123 L-45.186035662739556,-18.82323568224198 L-45.17847170371817,-18.890344288398612 L-45.17379867799713,-18.957045943380884 L-45.17202784330471,-19.02317995705956 L-45.1731634657368,-19.088587006803042 L-45.17720280947948,-19.153109521299513 L-45.184136143399876,-19.216592060160046 L-45.19394676448928,-19.278881688388115 L-45.20661103810219,-19.339828344813384 L-45.2220984548942,-19.399285203602233 L-45.24037170432173,-19.457109027974035 L-45.26138676452635,-19.513160515271107 L-45.28509300838734,-19.56730463255102 L-45.31143332548681,-19.619410941892788 L-45.34034425969372,-19.669353914633223 L-45.37175616203528,-19.717013233776512 L-45.40559335848739,-19.762274083848375 L-45.44177433228,-19.805027427496608 L-45.480211920278165,-19.845170268171607 L-45.520813522965675,-19.88260589825409 L-45.563481327525366,-19.917244132032216 L-45.60811254347879,-19.949001522966864 L-45.654599650317486,-19.977801564721645 " />
			<path d="M-45.65459965031749,-19.97780156472165 L-45.72306596976348,-20.013244703381485 L-45.794669304612384,-20.042504803783647 L-45.86906694081394,-20.065441818714667 L-45.945902789992,-20.08194596505754 L-46.02480909378541,-20.091938249245118 L-46.10540818404474,-20.095370845345936 L-46.18731429046017,-20.0922273239728 L-46.27013538696852,-20.08252273091853 L-46.353475068102185,-20.066303515142515 L-46.436934446299176,-20.043647306452666 L-46.52011406109309,-20.014662543946972 L-46.602615791045224,-19.979487956992934 L-46.68404475926773,-19.938291901229103 L-46.76401122341735,-19.891271552766845 L-46.84213244111383,-19.838651964449017 L-46.91803450185447,-19.78068498868269 L-46.991354116656794,-19.717648072001445 L-47.061740356863545,-19.649842927126862 L-47.1288563337877,-19.577594088885125 L-47.1923808111581,-19.501247360890442 L-47.252009742648184,-19.421168160430028 L-47.3074577271287,-19.33773976947238 L-47.358459374679185,-19.2513615001701 L-47.40477057682008,-19.162446783637666 L-47.44616967488572,-19.07142119115184 L-47.482458520946196,-18.978720397245706 L-47.51346342620002,-18.884788094445735 L-47.53903599229842,-18.79007386963236 L-47.559053821622335,-18.69503105218852 L-47.5734211031124,-18.600114544235506 L-47.582069070848135,-18.50577864334126 L-47.58495633318129,-18.412474868122185 " />
			<path d="M-84.74432247830939,-8.896936265109606 L-84.74229683910224,-8.819908935077011 L-84.73622672348043,-8.744177685232287 L-84.72613251460204,-8.669996817492173 L-84.71204810833794,-8.597615427664426 L-84.69402079945107,-8.527276568995987 L-84.67211112278291,-8.459216436011806 L-84.64639264998036,-8.39366357138492 L-84.61695174244562,-8.330838098501074 L-84.58388726133884,-8.270950982294924 L-84.54731023560697,-8.214203320839864 L-84.50734348915387,-8.160785670070311 L-84.4641212284036,-8.110877403903988 L-84.41778859164157,-8.064646111912884 L-84.36850116164715,-8.022247036565474 L-84.31642444325414,-7.983822551929947 L-84.26173330759345,-7.949501685588876 " />
			<path d="M-84.26173330759343,-7.949501685588873 L-84.21350230138162,-7.923728374837122 L-84.1636435885152,-7.901043885251481 L-84.11227728300058,-7.881502865754287 L-84.05952713076688,-7.865152392373102 L-84.00552021155121,-7.852031854830434 L-83.95038663275243,-7.842172861650445 L-83.89425921599097,-7.835599164011251 L-83.83727317713,-7.832326598526255 L-83.77956580052853,-7.832363049092352 L-83.72127610831134,-7.835708427896935 L-83.66254452545257,-7.842354675629444 L-83.60351254147962,-7.852285780896949 L-83.54432236961244,-7.865477818796998 L-83.48511660415954,-7.881899008554804 L-83.42603787699568,-7.901509790085913 L-83.3672285139493,-7.924262919299917 L-83.30883019192706,-7.950103581915599 L-83.2509835976018,-7.978969525513344 L-83.19382808848603,-8.010791209506666 L-83.13750135720741,-8.045491972671575 L-83.08213909979527,-8.08298821783018 L-83.02787468877683,-8.12318961324361 L-82.97483885187128,-8.16599931022909 L-82.9231593570551,-8.21131417647689 L-82.87296070475787,-8.25902504450511 L-82.82436382792989,-8.30901697465369 L-82.77748580070399,-8.361169531984126 L-82.73243955635381,-8.415357076417786 L-82.68933361522757,-8.471449065413859 L-82.64827182331307,-8.529310368457777 L-82.60935310206364,-8.588801592602454 L-82.57267121008762,-8.64977941827811 L-82.53831451727575,-8.712096944561667 L-82.5063657919103,-8.775604043073935 L-82.47690200126905,-8.840147719652036 L-82.4499941262044,-8.905572482925734 L-82.4257069901442,-8.97172071890977 L-82.40409910292655,-9.038433070709756 L-82.38522251984436,-9.105548822426895 L-82.36912271623969,-9.172906286336653 L-82.35583847794959,-9.240343192408659 L-82.34540180786765,-9.307697079229404 L-82.33783784884626,-9.37480568538604 L-82.33316482312523,-9.44150734036831 L-82.33139398843281,-9.507641354046989 L-82.3325296108649,-9.573048403790471 L-82.33656895460757,-9.637570918286942 L-82.34350228852797,-9.701053457147475 L-82.35331290961739,-9.763343085375542 L-82.36597718323029,-9.824289741800811 L-82.3814646000223,-9.883746600589662 L-82.39973784944982,-9.941570424961462 L-82.42075290965445,-9.997621912258536 L-82.44445915351544,-10.05176602953845 L-82.4707994706149,-10.103872338880215 L-82.49971040482181,-10.153815311620653 L-82.53112230716337,-10.201474630763942 L-82.56495950361548,-10.246735480835804 L-82.6011404774081,-10.289488824484035 L-82.63957806540627,-10.329631665159035 L-82.68017966809377,-10.367067295241519 L-82.72284747265346,-10.401705529019646 L-82.76747868860689,-10.433462919954291 L-82.81396579544558,-10.462262961709072 " />
			<path d="M-82.8139657954456,-10.462262961709076 L-82.88243211489159,-10.497706100368914 L-82.95403544974049,-10.526966200771072 L-83.02843308594204,-10.549903215702095 L-83.1052689351201,-10.566407362044968 L-83.1841752389135,-10.576399646232547 L-83.26477432917284,-10.579832242333364 L-83.34668043558827,-10.576688720960226 L-83.42950153209661,-10.566984127905958 L-83.51284121323027,-10.55076491212994 L-83.59630059142727,-10.528108703440093 L-83.67948020622119,-10.499123940934401 L-83.76198193617333,-10.463949353980361 L-83.84341090439582,-10.422753298216533 L-83.92337736854545,-10.375732949754273 L-84.00149858624192,-10.323113361436445 L-84.07740064698257,-10.26514638567012 L-84.1507202617849,-10.202109468988871 L-84.22110650199164,-10.13430432411429 L-84.2882224789158,-10.06205548587255 L-84.35174695628619,-9.98570875787787 L-84.41137588777629,-9.905629557417457 L-84.4668238722568,-9.822201166459807 L-84.51782551980729,-9.735822897157524 L-84.56413672194817,-9.646908180625095 L-84.60553582001381,-9.555882588139266 L-84.64182466607429,-9.463181794233133 L-84.67282957132812,-9.369249491433163 L-84.69840213742653,-9.274535266619786 L-84.71841996675043,-9.179492449175944 L-84.7327872482405,-9.084575941222935 L-84.74143521597624,-8.990240040328688 L-84.74432247830939,-8.896936265109613 " />
			<path d="M-73.66695955969156,11.376317162491066 L-65.84013979095357,15.885864285929518 " />
			<path d="M-30.42807926393495,-26.171282262405715 L-12.289382847369957,-15.720382833884296 " />
			<path d="M-30.428079263934954,-26.171282262405715 L-30.428079263934954,-0.6423947355146211 " />
			<path d="M-31.565214666196674,-1.2975734458653534 L-30.42807926393495,-0.6423947355146208 " />
			<path d="M-30.42807926393495,-0.6423947355146208 L-12.289382847369957,9.808504693006798 " />
			<path d="M-12.289382847369957,9.8085046930068 L-12.289382847369957,11.70124318957558 " />
			<path d="M-31.565214666196674,0.5951650507034252 L-12.289382847369957,11.701243189575576 " />
			<path d="M-12.289382847369957,11.701243189575578 L-20.22903299617809,13.734379255199872 " />
			<path d="M-12.289382847369957,-15.720382833884294 L-12.289382847369957,9.8085046930068 " />
			<path d="M-21.286620030143176,2.4364125375156442 L-21.290202516839322,2.340682513969237 L-21.30089213392079,2.242369938336101 L-21.31851628630269,2.143062170313719 L-21.342790413550986,2.0443626380250013 L-21.3733225844093,1.9478649489886861 L-21.40961982494033,1.8551271596537091 L-21.451096078107334,1.7676466189428908 L-21.497081666280007,1.6868357919833445 L-21.546834103882514,1.6139994543748326 L-21.57287388523822,1.5809447894108946 L-21.59955008560225,1.550313625218548 L-21.626754917281172,1.52222972989409 L-21.654378456597062,1.4968065790546758 L-21.682309088044466,1.4741468973294283 L-21.710433955283317,1.4543422432909248 L-21.738639417145595,1.437472639504183 L-21.766811506813124,1.423606249187972 L-21.794836392311225,1.412799100794921 L-21.82260083645749,1.4050948616232959 L-21.849992654407252,1.4005246613751772 L-21.876901166947004,1.3991069663739748 L-21.90321764770414,1.4008475049495142 L-21.92883576246609,1.4057392442921808 " />
			<path d="M-21.928835762466093,1.4057392442921812 L-21.966784240582495,1.4194333693750898 L-22.002456018432486,1.4404592264624898 L-22.03550755729519,1.4686143250567276 L-22.065620552783553,1.5036275161671977 L-22.092505000289584,1.5451616036233498 L-22.115901987887263,1.592816591458138 L-22.135586189795934,1.6461335360878484 L-22.151368036390732,1.7045989661896896 L-22.16309553986172,1.7676498277113262 L-22.170655757939564,1.8346789063891968 L-22.173975881591335,1.9050406755538127 L-22.17302393621131,1.9780575129044629 L-22.16780908955388,2.0530262263823973 L-22.158381563443083,2.129224826294756 L-22.144832150108975,2.2059194784699914 L-22.127291337808828,2.282371571482093 L-22.10592805415387,2.3578448298823904 L-22.080948039244063,2.431612404934609 L-22.052591864278455,2.5029638745655363 L-22.02113261472302,2.571212085117946 L-21.986873260348357,2.635699769015952 L-21.950143737465158,2.695805874611062 L-21.911297771457196,2.7509515472490556 L-21.870709470212482,2.8006057039567387 L-21.828769721259835,2.8442901480612925 L-21.785882427308263,2.8815841744856434 L-21.742460616443097,2.9121286213683364 L-21.698922464439747,2.9356293289885986 L-21.655687267502383,2.9518599726852535 L-21.61317140421227,2.960664242486929 L-21.57178432557443,2.9619573484625326 L-21.531924611780628,2.9557268372946353 " />
			<path d="M-21.531924611780624,2.9557268372946344 L-21.504956477600462,2.9468447169661416 L-21.479067285800276,2.934295766928524 L-21.454380949460358,2.918140050047611 L-21.431015624450556,2.89845489220744 L-21.40908314390248,2.875334512206447 L-21.38868848294413,2.848889570799338 L-21.369929256258892,2.819246641043048 L-21.352895250873736,2.786547602481875 L-21.33766799641281,2.750948962071378 L-21.324320374873327,2.712621105091302 L-21.312916271791458,2.6717474796328764 L-21.303510270467907,2.628523718563752 L-21.296147390716584,2.583156703173116 L-21.290862873386903,2.5358635729786436 L-21.287682011691004,2.4868706864346275 L-21.286620030143176,2.436412537515646 " />
			<path d="M-35.35104350543386,8.078406765186333 L5.008942771913823,31.332456992073748 " />
			<path d="M5.008942771913817,31.332456992073745 L5.008942771913817,33.21596261792756 " />
			<path d="M-35.35104350543386,9.961912391040148 L5.008942771913823,33.21596261792756 " />
			<path d="M-35.35104350543386,8.078406765186333 L-35.35104350543386,9.961912391040144 " />
			<path d="M-35.35104350543386,8.078406765186333 L-93.59456410908291,22.99304407398347 " />
			<path d="M5.008942771913817,33.21596261792756 L-7.095237778691124,36.31552564161536 " />
			<path d="M-14.807938411845797,38.29054589146655 L-53.234577831735244,48.13059992672469 " />
			<path d="M-35.35104350543386,9.961912391040148 L-93.59456410908291,24.876549699837284 " />
			<path d="M-93.59456410908291,24.87654969983728 L-92.31598015678377,25.613226249768218 " />
			<path d="M-59.910394693305875,44.28422149790954 L-53.23457783173523,48.1305999267247 " />
			<path d="M-46.69188901725867,15.08881896593916 L-46.769026636351576,15.107159482669015 L-46.849207543609985,15.12346092447585 L-46.932066959319705,15.13764912862584 L-47.01722791800337,15.149659546472282 L-47.10430298340927,15.159437537117004 L-47.19289601113647,15.166938615996848 L-47.28260395087739,15.172128657264361 L-47.373018680078445,15.174984049041916 L-47.46372886067672,15.175491800842975 L-47.55432181046537,15.173649602671762 L-47.644385380574306,15.169465835532504 L-47.73350983052432,15.162959533300388 L-47.82128969232446,15.154160296127738 L-47.90732561513181,15.14310815577936 L-47.99122618208164,15.12985339350967 L-48.07260969102217,15.114456311310223 L-48.15110589105272,15.096986957568296 L-48.226357666964795,15.07752480838466 L-48.298022663922985,15.05615840600034 L-48.36577484499403,15.032984955977383 L-48.429305974438385,15.008109884966156 L-48.48832702001593,14.981646361071189 L-48.54256946792615,14.953714778997563 L-48.59178654440055,14.924442212320196 L-48.63575433838969,14.89396183536788 L-48.67427282023722,14.862412317352192 L-48.70716675170652,14.829937191497654 L-48.73428648321977,14.796684202043295 L-48.75550863468253,14.762804632086345 L-48.77073665679635,14.728452615326065 L-48.77990127030581,14.693784434838856 L-48.7829607811816,14.6589578120749 " />
			<path d="M-48.7829607811816,14.658957812074899 L-48.781340669777556,14.633608037851689 L-48.7764842385557,14.608319333454961 L-48.76840318708423,14.583152621588635 L-48.75711698332395,14.558168531065942 L-48.74265281672826,14.533427250749297 L-48.725045532741426,14.508988384550063 L-48.70433754885276,14.484910807837508 L-48.68057875240928,14.461252525602877 L-48.65382638043263,14.438070532720296 L-48.62414488173014,14.415420676641121 L-48.59160576163197,14.39335752285254 L-48.556287409728526,14.371934223424532 L-48.47765984095448,14.3312119642697 L-48.389019401877505,14.293646076793337 L-48.29121974838171,14.259598341027443 L-48.185202744592964,14.22939665527983 L-48.07198939221257,14.203331878294168 L-47.95266999771265,14.181655028121288 L-47.82839367208886,14.164574864678121 L-47.700357264293295,14.152255879275595 L-47.56979383492486,14.144816710477379 L-47.4379607811816,14.142329001545663 L-47.306127727438344,14.144816710477379 L-47.17556429806991,14.152255879275595 L-47.047527890274345,14.164574864678121 L-46.923251564650556,14.181655028121288 L-46.80393217015064,14.203331878294168 L-46.69071881777024,14.22939665527983 L-46.584701813981496,14.259598341027443 L-46.4869021604857,14.293646076793337 L-46.39826172140872,14.3312119642697 L-46.31963415263468,14.371934223424532 L-46.284315800731235,14.393357522852538 L-46.251776680633064,14.415420676641121 L-46.22209518193057,14.438070532720296 L-46.19534280995392,14.461252525602877 L-46.17158401351044,14.484910807837508 L-46.150876029621784,14.508988384550063 L-46.13326874563494,14.533427250749295 L-46.11880457903926,14.558168531065942 L-46.10751837527897,14.583152621588635 L-46.0994373238075,14.608319333454961 L-46.09458089258565,14.633608037851689 L-46.0929607811816,14.658957812074894 " />
			<path d="M-46.0929607811816,14.658957812074899 L-46.095497314191746,14.690671582724608 L-46.103097345936355,14.722265735491597 L-46.11573221064385,14.753621103667435 L-46.13335425217828,14.784619421190522 L-46.15589700378865,14.815143768721597 L-46.1832754388079,14.845079014639651 L-46.21538629135617,14.874312249294967 L-46.252108445838715,14.902733210881301 L-46.29330339376923,14.930234701320968 L-46.33881575619561,14.95671299059415 L-46.388473869757775,14.9820682079874 L-46.442090434166836,15.006204718785625 L-46.49946321866367,15.029031484986763 L-46.560375824792125,15.05046240867857 L-46.62459850260993,15.070416656782408 L-46.69188901725867,15.088818965939158 " />
			<path d="M-21.85796123225516,20.159795650930185 L-21.935098851348073,20.178136167660043 L-22.01527975860648,20.194437609466878 L-22.0981391743162,20.208625813616866 L-22.183300132999868,20.22063623146331 L-22.270375198405763,20.23041422210803 L-22.358968226132962,20.237915300987876 L-22.44867616587388,20.243105342255387 L-22.539090895074942,20.245960734032945 L-22.629801075673207,20.246468485834 L-22.720394025461864,20.24462628766279 L-22.8104575955708,20.240442520523533 L-22.899582045520816,20.233936218291415 L-22.987361907320953,20.225136981118766 L-23.073397830128307,20.214084840770386 L-23.157298397078137,20.200830078500697 L-23.23868190601867,20.185432996301248 L-23.317178106049212,20.16796364255932 L-23.39242988196129,20.148501493375687 L-23.464094878919475,20.12713509099137 L-23.531847059990522,20.10396164096841 L-23.595378189434882,20.079086569957184 L-23.654399235012427,20.052623046062216 L-23.708641682922643,20.02469146398859 L-23.757858759397042,19.995418897311225 L-23.80182655338618,19.96493852035891 L-23.84034503523371,19.93338900234322 L-23.87323896670301,19.90091387648868 L-23.90035869821626,19.867660887034322 L-23.92158084967902,19.833781317077374 L-23.936808871792845,19.79942930031709 L-23.945973485302304,19.764761119829885 L-23.949032996178094,19.72993449706593 " />
			<path d="M-23.949032996178094,19.729934497065926 L-23.947412884774053,19.704584722842718 L-23.9425564535522,19.67929601844599 L-23.934475402080725,19.654129306579662 L-23.92318919832044,19.62914521605697 L-23.908725031724757,19.604403935740322 L-23.891117747737916,19.57996506954109 L-23.870409763849256,19.555887492828536 L-23.846650967405775,19.532229210593904 L-23.819898595429127,19.509047217711323 L-23.790217096726632,19.486397361632147 L-23.75767797662846,19.464334207843567 L-23.72235962472502,19.44291090841556 L-23.643732055950977,19.402188649260726 L-23.555091616874,19.364622761784364 L-23.457291963378196,19.33057502601847 L-23.35127495958946,19.30037334027086 L-23.23806160720906,19.274308563285196 L-23.11874221270914,19.252631713112315 L-22.994465887085347,19.235551549669147 L-22.86642947928979,19.223232564266624 L-22.735866049921352,19.215793395468406 L-22.604032996178095,19.213305686536692 L-22.472199942434838,19.215793395468406 L-22.3416365130664,19.223232564266624 L-22.213600105270842,19.235551549669147 L-22.08932377964705,19.252631713112315 L-21.970004385147128,19.274308563285196 L-21.85679103276673,19.30037334027086 L-21.750774028977993,19.33057502601847 L-21.652974375482188,19.364622761784364 L-21.564333936405212,19.402188649260726 L-21.48570636763117,19.44291090841556 L-21.45038801572773,19.464334207843567 L-21.417848895629557,19.486397361632147 L-21.388167396927063,19.509047217711323 L-21.361415024950414,19.532229210593904 L-21.337656228506933,19.555887492828536 L-21.316948244618274,19.57996506954109 L-21.299340960631433,19.604403935740322 L-21.28487679403575,19.62914521605697 L-21.273590590275465,19.654129306579662 L-21.26550953880399,19.67929601844599 L-21.260653107582137,19.704584722842718 L-21.259032996178096,19.729934497065923 " />
			<path d="M-21.259032996178096,19.729934497065926 L-21.26156952918824,19.761648267715636 L-21.269169560932852,19.793242420482624 L-21.28180442564034,19.824597788658462 L-21.299426467174776,19.85559610618155 L-21.321969218785146,19.886120453712625 L-21.349347653804386,19.91605569963068 L-21.38145850635266,19.945288934285994 L-21.418180660835212,19.97370989587233 L-21.45937560876572,20.001211386311997 L-21.504887971192105,20.02768967558518 L-21.554546084754268,20.053044892978427 L-21.60816264916333,20.077181403776653 L-21.665535433660164,20.10000816997779 L-21.72644803978862,20.121439093669597 L-21.790670717606424,20.141393341773433 L-21.85796123225516,20.159795650930185 " />
			<path d="M0.4798156697348237,33.03006231718577 L0.4026780506419131,33.048402833915624 L0.32249714338350666,33.06470427572246 L0.23963772767378788,33.07889247987245 L0.15447676899011775,33.09090289771889 L0.06740170358422215,33.10068088836361 L-0.02119132414297767,33.10818196724345 L-0.11089926388389709,33.11337200851097 L-0.20131399308495662,33.11622740028852 L-0.29202417368322336,33.11673515208958 L-0.3826171234718788,33.11489295391837 L-0.4726806935808142,33.11070918677911 L-0.5618051435308304,33.10420288454699 L-0.6495850053309674,33.09540364737435 L-0.735620928138321,33.08435150702597 L-0.8195214950881508,33.071096744756275 L-0.9009050040286826,33.05569966255683 L-0.9794012040592273,33.0382303088149 L-1.054652979971306,33.018768159631264 L-1.1263179769294904,32.99740175724695 L-1.1940701580005362,32.97422830722399 L-1.257601287444896,32.949353236212765 L-1.316622333022441,32.9228897123178 L-1.3708647809326584,32.89495813024417 L-1.4200818574070564,32.86568556356681 L-1.4640496513961954,32.83520518661449 L-1.5025681332437264,32.8036556685988 L-1.535462064713023,32.77118054274426 L-1.5625817962262747,32.7379275532899 L-1.5838039476890373,32.704047983332956 L-1.5990319698028606,32.669695966572675 L-1.6081965833123182,32.635027786085466 L-1.6112560941881096,32.60020116332151 " />
			<path d="M-1.6112560941881096,32.60020116332151 L-1.6096359827840665,32.5748513890983 L-1.6047795515622145,32.54956268470157 L-1.5966985000907399,32.524395972835244 L-1.5854122963304544,32.49941188231255 L-1.5709481297347712,32.4746706019959 L-1.5533408457479305,32.45023173579667 L-1.5326328618592726,32.42615415908411 L-1.5088740654157904,32.402495876849486 L-1.4821216934391408,32.37931388396691 L-1.4524401947366472,32.35666402788773 L-1.4199010746384755,32.334600874099145 L-1.3845827227350331,32.313177574671144 L-1.305955153960991,32.27245531551631 L-1.2173147148840162,32.23488942803994 L-1.1195150613882123,32.200841692274054 L-1.0134980575994745,32.17064000652644 L-0.9002847052190767,32.14457522954078 L-0.7809653107191561,32.122898379367896 L-0.6566889850953627,32.10581821592473 L-0.5286525772998026,32.093499230522205 L-0.3980891479313684,32.08606006172399 L-0.2662560941881098,32.083572352792274 L-0.13442304044485126,32.08606006172399 L-0.0038596110764170244,32.093499230522205 L0.12417679671914306,32.10581821592473 L0.24845312234293648,32.122898379367896 L0.36777251684285717,32.14457522954078 L0.4809858692232549,32.17064000652644 L0.5870028730119928,32.200841692274054 L0.6848025265077966,32.23488942803994 L0.7734429655847719,32.27245531551631 L0.8520705343588137,32.313177574671144 L0.8873888862622563,32.334600874099145 L0.9199280063604276,32.35666402788773 L0.9496095050629214,32.3793138839669 L0.9763618770395708,32.402495876849486 L1.000120673483053,32.42615415908411 L1.020828657371711,32.45023173579667 L1.0384359413585518,32.4746706019959 L1.0529001079542353,32.49941188231255 L1.064186311714521,32.524395972835244 L1.0722673631859954,32.54956268470157 L1.0771237944078473,32.5748513890983 L1.0787439058118904,32.6002011633215 " />
			<path d="M1.0787439058118904,32.60020116332151 L1.0762073728017472,32.63191493397122 L1.068607341057134,32.66350908673821 L1.0559724763496467,32.69486445491404 L1.0383504348152102,32.72586277243713 L1.0158076832048402,32.7563871199682 L0.9884292481855983,32.786322365886264 L0.9563183956373249,32.81555560054158 L0.9195962411547749,32.84397656212791 L0.8784012932242653,32.871478052567575 L0.8328889307978811,32.89795634184076 L0.7832308172357174,32.92331155923401 L0.7296142528266543,32.94744807003224 L0.6722414683298205,32.97027483623337 L0.6113288622013651,32.991705759925175 L0.5471061843835611,33.01166000802902 L0.47981566973482526,33.03006231718577 " />
			<path d="M-78.2099541667762,27.092971337048166 L-78.28709178586911,27.111311853778023 L-78.36727269312752,27.127613295584858 L-78.45013210883722,27.141801499734846 L-78.5352930675209,27.15381191758129 L-78.6223681329268,27.16358990822601 L-78.710961160654,27.171090987105856 L-78.80066910039491,27.176281028373367 L-78.89108382959597,27.179136420150925 L-78.98179401019424,27.179644171951985 L-79.0723869599829,27.17780197378077 L-79.16245053009183,27.173618206641514 L-79.25157498004185,27.167111904409396 L-79.33935484184198,27.158312667236746 L-79.42539076464934,27.147260526888367 L-79.50929133159917,27.134005764618678 L-79.5906748405397,27.11860868241923 L-79.66917104057025,27.101139328677302 L-79.74442281648233,27.081677179493667 L-79.8160878134405,27.06031077710935 L-79.88383999451155,27.03713732708639 L-79.94737112395592,27.012262256075164 L-80.00639216953346,26.985798732180196 L-80.06063461744368,26.95786715010657 L-80.10985169391807,26.928594583429206 L-80.15381948790721,26.89811420647689 L-80.19233796975475,26.8665646884612 L-80.22523190122403,26.83408956260666 L-80.25235163273729,26.800836573152303 L-80.27357378420005,26.766957003195355 L-80.28880180631388,26.73260498643507 L-80.29796641982334,26.697936805947865 L-80.30102593069913,26.66311018318391 " />
			<path d="M-80.30102593069913,26.663110183183907 L-80.29940581929509,26.6377604089607 L-80.29454938807324,26.61247170456397 L-80.28646833660176,26.587304992697643 L-80.27518213284146,26.56232090217495 L-80.26071796624579,26.537579621858303 L-80.24311068225894,26.51314075565907 L-80.22240269837029,26.489063178946516 L-80.19864390192681,26.465404896711885 L-80.17189152995016,26.442222903829304 L-80.14221003124767,26.419573047750127 L-80.1096709111495,26.397509893961548 L-80.07435255924605,26.37608659453354 L-79.99572499047201,26.335364335378706 L-79.90708455139503,26.297798447902345 L-79.80928489789923,26.26375071213645 L-79.7032678941105,26.23354902638884 L-79.5900545417301,26.207484249403176 L-79.47073514723017,26.185807399230296 L-79.34645882160638,26.168727235787127 L-79.21842241381081,26.156408250384604 L-79.08785898444239,26.148969081586387 L-78.95602593069913,26.146481372654673 L-78.82419287695586,26.148969081586387 L-78.69362944758744,26.156408250384604 L-78.56559303979188,26.168727235787127 L-78.44131671416808,26.185807399230296 L-78.32199731966816,26.207484249403176 L-78.20878396728776,26.23354902638884 L-78.10276696349902,26.26375071213645 L-78.00496731000322,26.297798447902345 L-77.91632687092624,26.335364335378706 L-77.8376993021522,26.37608659453354 L-77.80238095024876,26.397509893961548 L-77.7698418301506,26.419573047750127 L-77.7401603314481,26.442222903829304 L-77.71340795947145,26.465404896711885 L-77.68964916302797,26.489063178946516 L-77.66894117913931,26.51314075565907 L-77.65133389515246,26.537579621858303 L-77.63686972855679,26.56232090217495 L-77.6255835247965,26.587304992697643 L-77.61750247332502,26.61247170456397 L-77.61264604210317,26.6377604089607 L-77.61102593069913,26.663110183183903 " />
			<path d="M-77.61102593069913,26.663110183183907 L-77.61356246370927,26.694823953833616 L-77.62116249545389,26.726418106600605 L-77.63379736016137,26.757773474776442 L-77.6514194016958,26.78877179229953 L-77.67396215330618,26.819296139830605 L-77.70134058832542,26.84923138574866 L-77.7334514408737,26.878464620403975 L-77.77017359535624,26.90688558199031 L-77.81136854328675,26.934387072429978 L-77.85688090571314,26.96086536170316 L-77.9065390192753,26.986220579096408 L-77.96015558368437,27.010357089894633 L-78.0175283681812,27.03318385609577 L-78.07844097430966,27.054614779787578 L-78.14266365212745,27.074569027891414 L-78.20995416677619,27.092971337048166 " />
			<path d="M-38.13009148852225,42.367690603729116 L-38.19862639916614,42.38398570967126 L-38.269865197808365,42.39846914681562 L-38.343483786487255,42.411075023365235 L-38.41914724048502,42.42174598940724 L-38.49651133205382,42.43043349782393 L-38.575224096465725,42.437098025155834 L-38.654927433261555,42.4417092514121 L-38.73525873541417,42.444246198010006 L-38.815852538994044,42.44469732321615 L-38.89634218583229,42.44306057465511 L-38.976361491616814,42.43934339864662 L-39.05554641183262,42.433562706328864 L-39.133536697967315,42.42574479672194 L-39.209977536446715,42.41592523708156 L-39.28452116284452,42.4041487010873 L-39.35682844402216,42.39046876560155 L-39.426570421000974,42.374947666923774 L-39.49342980554739,42.35765601764909 L-39.55710242366266,42.33867248541916 L-39.6172985994098,42.31808343502701 L-39.673744472782296,42.29598253550403 L-39.72618324561885,42.27247033397653 L-39.77437634989596,42.24765379823082 L-39.81810453308325,42.22164583006766 L-39.85716885562378,42.19456475166021 L-39.891391596001334,42.16653376725222 L-39.92061705927703,42.1376804026454 L-39.944712285417054,42.1081359250261 L-39.9635676541888,42.078034745770665 L-39.97709738387357,42.047513808946476 L-39.985239921526954,42.01671196829056 L-39.9879582230114,41.985769355500274 " />
			<path d="M-39.9879582230114,41.985769355500274 L-39.98651879317658,41.96324669364397 L-39.98220397138467,41.94077829085282 L-39.97502415241931,41.918418275477165 L-39.96499663309326,41.896220514752535 L-39.95214557057888,41.874238485028826 L-39.936501924211385,41.85252514294103 L-39.91810338090511,41.83113279783211 L-39.896994264362384,41.81011298573517 L-39.873225428293914,41.78951634521867 L-39.846854133907684,41.76939249539368 L-39.78656440971294,41.730755832498645 L-39.71670571477987,41.69457508923469 L-39.63795082652932,41.66119870593784 L-39.551058197586954,41.63094811542465 L-39.45686465146982,41.60411464741841 L-39.35627732351846,41.58095672288468 L-39.25026492468768,41.56169736529613 L-39.13984841233048,41.546522052794586 L-39.02609115782067,41.5355769319351 L-38.91008870570522,41.52896741021475 L-38.7929582230114,41.526757140940845 L-38.67582774031757,41.52896741021475 L-38.55982528820212,41.5355769319351 L-38.44606803369231,41.546522052794586 L-38.335651521335116,41.56169736529613 L-38.22963912250433,41.58095672288468 L-38.12905179455297,41.60411464741841 L-38.03485824843584,41.63094811542465 L-37.94796561949347,41.66119870593784 L-37.86921073124292,41.69457508923469 L-37.799352036309855,41.730755832498645 L-37.73906231211511,41.76939249539368 L-37.71269101772888,41.78951634521867 L-37.68892218166041,41.81011298573517 L-37.667813065117684,41.83113279783211 L-37.64941452181141,41.85252514294103 L-37.633770875443915,41.874238485028826 L-37.620919812929536,41.896220514752535 L-37.610892293603484,41.918418275477165 L-37.60371247463812,41.94077829085282 L-37.599397652846214,41.96324669364397 L-37.597958223011396,41.98576935550027 " />
			<path d="M-37.597958223011396,41.985769355500274 L-37.600211871299216,42.01394627440466 L-37.60696431586042,42.04201691571065 L-37.6181900878496,42.06987540267728 L-37.633846845941534,42.09741665876657 L-37.653875536034015,42.12453680397076 L-37.67820061398792,42.15113354662658 L-37.70673033056426,42.17710656923855 L-37.7393570774837,42.20235790685615 L-37.77595779330301,42.22679231657764 L-37.81639442757775,42.250317636786896 L-37.860514461560484,42.27284513476826 L-37.9081514834704,42.29428984138824 L-37.95912581616461,42.31457087158182 L-38.0132451948438,42.33361172943439 L-38.070305492235825,42.3513405967088 L-38.13009148852225,42.367690603729116 " />
			<path d="M-52.27494649226559,45.98981680729414 L-52.34348140290948,46.00611191323628 L-52.41472020155171,46.020595350380646 L-52.4883387902306,46.03320122693026 L-52.56400224422836,46.043872192972266 L-52.641366335797166,46.05255970138895 L-52.72007910020907,46.05922422872086 L-52.7997824370049,46.063835454977124 L-52.880113739157515,46.06637240157503 L-52.96070754273739,46.06682352678117 L-53.041197189575634,46.06518677822013 L-53.12121649536016,46.061469602211645 L-53.20040141557597,46.05568890989389 L-53.27839170171066,46.04787100028697 L-53.35483254019006,46.03805144064658 L-53.429376166587865,46.026274904652325 L-53.50168344776551,46.01259496916657 L-53.57142542474432,45.9970738704888 L-53.63828480929074,45.979782221214116 L-53.70195742740601,45.960798688984184 L-53.762153603153145,45.94020963859204 L-53.81859947652564,45.918108739069055 L-53.87103824936219,45.89459653754155 L-53.919231353639304,45.869780001795846 L-53.962959536826595,45.84377203363268 L-54.00202385936713,45.81669095522523 L-54.03624659974468,45.78865997081724 L-54.06547206302037,45.759806606210425 L-54.0895672891604,45.73026212859112 L-54.108422657932145,45.70016094933569 L-54.121952387616915,45.6696400125115 L-54.1300949252703,45.63883817185558 L-54.13281322675474,45.6078955590653 " />
			<path d="M-54.13281322675474,45.6078955590653 L-54.131373796919924,45.58537289720899 L-54.127058975128016,45.56290449441784 L-54.11987915616265,45.54054447904219 L-54.1098516368366,45.51834671831756 L-54.09700057432222,45.49636468859385 L-54.08135692795473,45.47465134650606 L-54.062958384648454,45.453259001397136 L-54.04184926810573,45.43223918930019 L-54.01808043203726,45.411642548783696 L-53.99170913765103,45.391518698958706 L-53.93141941345628,45.35288203606367 L-53.861560718523215,45.31670129279971 L-53.782805830272665,45.283324909502866 L-53.6959132013303,45.253074318989675 L-53.60171965521317,45.22624085098344 L-53.50113232726181,45.2030829264497 L-53.39511992843102,45.18382356886116 L-53.284703416073825,45.16864825635961 L-53.17094616156402,45.15770313550012 L-53.054943709448565,45.15109361377977 L-52.93781322675474,45.14888334450587 L-52.82068274406092,45.15109361377977 L-52.704680291945465,45.15770313550012 L-52.59092303743566,45.16864825635961 L-52.48050652507846,45.18382356886116 L-52.374494126247676,45.2030829264497 L-52.273906798296316,45.22624085098344 L-52.179713252179184,45.253074318989675 L-52.09282062323682,45.283324909502866 L-52.01406573498627,45.31670129279971 L-51.9442070400532,45.35288203606367 L-51.883917315858454,45.391518698958706 L-51.857546021472224,45.411642548783696 L-51.833777185403754,45.43223918930019 L-51.81266806886103,45.453259001397136 L-51.79426952555475,45.47465134650606 L-51.77862587918726,45.49636468859385 L-51.76577481667288,45.51834671831756 L-51.75574729734683,45.54054447904219 L-51.74856747838147,45.56290449441784 L-51.74425265658956,45.58537289720899 L-51.74281322675474,45.60789555906529 " />
			<path d="M-51.74281322675474,45.6078955590653 L-51.74506687504256,45.636072477969684 L-51.75181931960376,45.66414311927567 L-51.76304509159294,45.69200160624231 L-51.77870184968488,45.71954286233159 L-51.79873053977736,45.74666300753579 L-51.823055617731264,45.773259750191606 L-51.85158533430761,45.79923277280358 L-51.88421208122705,45.824484110421174 L-51.92081279704635,45.84891852014266 L-51.96124943132109,45.87244384035192 L-52.00536946530383,45.894971338333285 L-52.05300648721374,45.916416044953266 L-52.10398081990795,45.936697075146846 L-52.15810019858714,45.95573793299941 L-52.21516049597917,45.973466800273826 L-52.27494649226559,45.98981680729414 " />
			<path d="M-93.59456410908291,22.993044073983466 L-93.59456410908291,24.876549699837277 " />
			<path d="M-88.08916466154753,23.8730076752025 L-59.91039469330589,40.10865571706452 " />
			<path d="M-59.910394693305875,40.10865571706452 L-59.910394693305875,47.98429443693364 " />
			<path d="M-88.08916466154753,31.748646395071617 L-59.91039469330589,47.98429443693364 " />
			<path d="M-88.08916466154753,23.8730076752025 L-88.08916466154753,31.748646395071617 " />
			<path d="M-92.31598015678377,32.83102293119575 L-64.13721018854213,49.06667097305777 " />
			<path d="M-92.31598015678377,24.95538421132663 L-92.31598015678377,32.83102293119575 " />
			<path d="M-88.08916466154753,23.8730076752025 L-92.31598015678377,24.955384211326635 " />
			<path d="M-88.08916466154753,31.748646395071617 L-92.31598015678377,32.831022931195754 " />
			<path d="M-59.910394693305875,47.98429443693364 L-64.13721018854211,49.066670973057775 " />
			<path d="M-34.7297792856616,10.970781071856635 L-26.270601293226854,15.844671478124269 " />
			<path d="M-26.27060129322686,15.844671478124269 L-26.27060129322686,25.077542193093922 " />
			<path d="M-34.7297792856616,20.203651786826292 L-26.270601293226854,25.077542193093926 " />
			<path d="M-34.7297792856616,10.970781071856635 L-34.7297792856616,20.20365178682629 " />
			<path d="M-44.71438281771573,22.760446754048658 L-36.255204825280984,27.634337160316292 " />
			<path d="M-44.71438281771573,13.527576039079001 L-44.71438281771573,22.760446754048655 " />
			<path d="M-34.7297792856616,10.970781071856635 L-44.71438281771572,13.527576039079001 " />
			<path d="M-34.7297792856616,20.203651786826292 L-44.71438281771572,22.760446754048658 " />
			<path d="M-26.27060129322686,25.077542193093926 L-36.255204825280984,27.634337160316292 " />
			<path d="M-26.27060129322686,18.753025753339713 L-24.007424492627923,20.05699118662312 " />
			<path d="M-24.00742449262792,20.056991186623122 L-24.00742449262792,29.751505437341258 " />
			<path d="M-29.554426454880215,26.5555117283133 L-24.007424492627923,29.751505437341255 " />
			<path d="M-29.554426454880215,25.918443648980393 L-29.554426454880215,26.5555117283133 " />
			<path d="M-40.371080281272185,29.325372942804194 L-34.82407831901989,32.52136665183215 " />
			<path d="M-40.371080281272185,25.26290982821755 L-40.371080281272185,29.325372942804194 " />
			<path d="M-29.554426454880215,26.5555117283133 L-40.371080281272185,29.325372942804194 " />
			<path d="M-24.00742449262792,29.751505437341258 L-34.82407831901989,32.52136665183215 " />
			<path d="M-9.321736797564979,38.27522065931882 L-9.463618290467807,38.310239770628975 L-9.608493745865761,38.34340101890936 L-9.756198340659655,38.37466667699838 L-9.906564033071733,38.40400117432511 L-10.059419753824828,38.43137113737744 L-10.214591600765855,38.45674542767079 L-10.371903036712247,38.48009517717397 L-10.531175090296228,38.50139382115199 L-10.692226559578424,38.52061712838847 L-10.854874218199186,38.537743228753186 L-11.01893302383305,38.55275263808347 L-11.184216328709223,38.56562828035111 L-11.350536091958539,38.57635550708958 L-11.517703093545354,38.584922114059346 L-11.685527149540945,38.591318355132564 L-11.85381732849353,38.595536953381114 L-12.022382168648726,38.597573109355444 L-12.191029895773331,38.5974245065449 L-12.359568641334626,38.59509131401314 L-12.527806660786922,38.59057618620582 L-12.695552551717086,38.58388425993068 L-12.862615471600808,38.57502314851341 L-13.028805354921893,38.5640029331361 L-13.19393312940756,38.55083615136799 L-13.35781093113374,38.535537782901606 L-13.520252318255652,38.51812523251056 L-13.681072483120488,38.49861831024835 L-13.840088462520907,38.47703920891064 L-13.997119345850122,38.45341247878688 L-14.15198648092176,38.42776499972964 L-14.304513677220363,38.400125950573745 L-14.454527406351247,38.37052677593987 L-14.601856999461724,38.33900115046037 L-14.746334841409034,38.30558494046802 L-14.887796561454138,38.270316163191346 L-15.026081220264345,38.23323494350283 L-15.161031493012125,38.19438346826935 L-15.292493848361685,38.15380593835667 L-15.420318723139783,38.11154851834262 L-15.544360692491967,38.06765928399623 L-15.664478635330745,38.022188167582456 L-15.780535894887358,37.97518690105487 L-15.892400434184594,37.92670895720078 L-15.999944986253695,37.87680948880592 L-16.103047198924493,37.82554526590773 L-16.201589774024022,37.772974611208795 L-16.29546060082528,37.71915733372375 L-16.384552883594274,37.66415466073531 L-16.468765263090276,37.60802916813668 L-16.548001931881036,37.55084470923972 L-16.622172743341757,37.49266634212975 L-16.691193314213862,37.433560255649795 L-16.75498512060684,37.37359369409824 L-16.813475587333926,37.31283488072586 L-16.866598170480056,37.25135294011897 L-16.914292433108095,37.18921781955724 L-16.956504114017218,37.12650020943546 L-16.99318518947524,37.06327146283996 L-17.024293927854675,36.99960351437098 L-17.049794937110274,36.93556879830359 L-17.06965920504417,36.87124016618003 L-17.08386413231272,36.80669080392735 L-17.092393558137466,36.74199414859471 L-17.095237778691125,36.67722380480485 " />
			<path d="M-17.095237778691125,36.67722380480484 L-17.093731872172146,36.63009106985793 L-17.089215059716988,36.58298672590815 L-17.081690062084576,36.53593914685094 L-17.07116141205211,36.488976672388716 L-17.057635451684675,36.442127590960034 L-17.041120328515028,36.39542012269977 L-17.021625990635833,36.34888240244028 L-16.999164180707275,36.3025424627641 L-16.973748428883766,36.256428217118135 L-16.945394044663843,36.210567442999626 L-16.914118107668322,36.16498776522406 L-16.87993945735217,36.119716639285 L-16.84287868165631,36.07478133481592 L-16.80295810460623,36.03020891916398 L-16.76020177286482,35.98602624108571 L-16.71463544124756,35.94225991457428 L-16.666286557208778,35.898936302828254 L-16.61518424430834,35.856081502371374 L-16.5613592846687,35.81372132733299 L-16.5048441004329,35.7718812938986 L-16.383880828692487,35.68986213483324 L-16.252585840203853,35.61022161651351 L-16.111275436094353,35.53315159992373 L-15.96029004550481,35.458837753484396 L-15.799993405465921,35.387459105760705 L-15.630771684623863,35.31918761416706 L-15.453032552926217,35.254187750706585 L-15.26720419950935,35.19261610574367 L-15.07373430115329,35.134621010764064 L-14.873088943789135,35.08034218103135 L-14.665751499657233,35.02991037900062 L-14.452221462821115,34.983447099300264 L-14.233013245842537,34.94106427604079 L-14.008654940516577,34.90286401315572 L-13.779687045652228,34.8689383384243 L-13.546661164963442,34.83936898176849 L-13.31013867820745,34.81422717835844 L-13.070689388771768,34.793573497000736 L-12.828890150967933,34.77745769422281 L-12.585323480338927,34.76591859440514 L-12.340576150328214,34.75898399624988 L-12.095237778691127,34.7566706058114 L-11.849899407054037,34.75898399624988 L-11.605152077043325,34.76591859440514 L-11.361585406414319,34.77745769422281 L-11.119786168610483,34.793573497000736 L-10.880336879174802,34.81422717835844 L-10.643814392418811,34.83936898176849 L-10.410788511730022,34.8689383384243 L-10.181820616865675,34.90286401315572 L-9.957462311539715,34.94106427604079 L-9.738254094561137,34.983447099300264 L-9.524724057725017,35.02991037900062 L-9.317386613593115,35.08034218103135 L-9.116741256228961,35.134621010764064 L-8.9232713578729,35.19261610574367 L-8.737443004456036,35.254187750706585 L-8.559703872758387,35.31918761416706 L-8.390482151916327,35.387459105760705 L-8.230185511877439,35.458837753484396 L-8.0792001212879,35.53315159992373 L-7.937889717178399,35.61022161651351 L-7.806594728689765,35.68986213483324 L-7.685631456949351,35.7718812938986 L-7.629116272713549,35.81372132733299 L-7.575291313073909,35.856081502371374 L-7.524189000173473,35.89893630282825 L-7.475840116134693,35.94225991457427 L-7.430273784517432,35.9860262410857 L-7.387517452776023,36.03020891916398 L-7.3475968757259436,36.07478133481592 L-7.310536100030082,36.119716639285 L-7.2763574497139265,36.16498776522406 L-7.245081512718406,36.210567442999626 L-7.216727128498483,36.256428217118135 L-7.191311376674974,36.3025424627641 L-7.168849566746419,36.34888240244028 L-7.14935522886722,36.39542012269977 L-7.132840105697575,36.44212759096004 L-7.11931414533014,36.488976672388716 L-7.108785495297674,36.53593914685094 L-7.101260497665263,36.58298672590815 L-7.096743685210104,36.63009106985793 L-7.095237778691125,36.677223804804825 " />
			<path d="M-7.095237778691125,36.67722380480484 L-7.0975957073598925,36.73619914582299 L-7.104667269435152,36.7951188629822 L-7.116445795221323,36.853927384886376 L-7.132920175548955,36.91256924501561 L-7.154074872252579,36.970989134040636 L-7.179889932825859,37.02913195198899 L-7.210341009240231,37.086942860213725 L-7.245399380909268,37.14436733311571 L-7.28503198177711,37.20135120957056 L-7.329201431505439,37.257840744011894 L-7.377866070729533,37.313782657122616 L-7.430980000350203,37.36912418608645 L-7.488493124824501,37.4238131343523 L-7.550351199414417,37.477797920864575 L-7.6164958813489605,37.531027628712955 L-7.686864784851406,37.583452053155774 L-7.761391539979769,37.63502174897171 L-7.840005855225048,37.68568807709506 L-7.922633583808163,37.73540325049079 L-8.009196793613093,37.78412037922585 L-8.099613840690212,37.83179351469443 L-8.193799446260542,37.8783776929554 L-8.291664777148258,37.92382897714098 L-8.39311752956561,37.96810449889676 L-8.498062016171215,38.01116249881392 L-8.606399256319637,38.05296236581549 L-8.718027069417099,38.09346467545956 L-8.832840171295308,38.13263122712332 L-8.950730273512475,38.17042508003274 L-9.071586185487888,38.206810588104126 L-9.195293919373693,38.24175343356443 L-9.321736797564974,38.27522065931882 " />
			<path d="M-14.001255221695233,25.20717510412672 L-13.714452648833912,25.16565334701658 L-13.421565650290793,25.130959432001656 L-13.123694789807386,25.103223726305856 L-12.821959358681479,25.082550450711206 L-12.517493169873967,25.06901728793374 L-12.211440297548553,25.06267509071986 L-11.904950778053541,25.063547690760043 L-11.599176288499855,25.07163180913795 L-11.295265819173698,25.08689706865141 L-10.994361356045339,25.10928610795899 L-10.697593589597538,25.138714797123228 L-10.406077666098401,25.17507255374062 L-10.12090899728377,25.218222758470414 L-9.843159144194843,25.268003268400836 L-9.707393621709342,25.29532238706252 L-9.57387179063814,25.324227026323694 L-9.442719112178164,25.354690026501103 L-9.314058821398062,25.386682763627917 L-9.188011811442786,25.420175176349673 L-9.064696519938686,25.45513579417084 L-8.944228817705875,25.491531767025464 L-8.8267218998825,25.529328896144097 L-8.712286179563096,25.568491666187995 L-8.60102918405107,25.608983278620435 L-8.493055453822773,25.650765686283734 L-8.388466444298055,25.693799629149517 L-8.287360430509652,25.738044671208666 L-8.189832414760964,25.783459238466193 L-8.095974037358982,25.830000658005467 L-8.005873490506248,25.877625198084985 L-7.91961543543277,25.926288109230047 L-7.837280922845742,25.975943666280738 L-7.758947316771806,26.026545211356687 L-7.684688221863466,26.07804519769823 L-7.614573414237891,26.13039523434281 L-7.548668775913144,26.18354613159461 L-7.487036232903425,26.23744794724467 L-7.429733697031494,26.292050033498153 L-7.376815011512944,26.347301084564528 L-7.328329900363477,26.403149184866074 L-7.2843239216766955,26.459541857819353 L-7.244838424816318,26.5164261151438 L-7.209910511563061,26.573748506651135 L-7.179573001252668,26.6314551704688 L-7.153854399937852,26.689491883650224 L-7.132778873603143,26.74780411312435 L-7.116366225457788,26.80633706693658 L-7.10463187732805,26.865035745732996 L-7.0975868551663845,26.923844994439392 L-7.095237778691125,26.982709554086686 " />
			<path d="M-16.22775424056908,34.29620849157901 L-16.36963573347191,34.331227602889165 L-16.514511188869864,34.36438885116955 L-16.662215783663758,34.39565450925857 L-16.812581476075838,34.4249890065853 L-16.965437196828933,34.45235896963763 L-17.12060904376996,34.47773325993098 L-17.27792047971635,34.50108300943416 L-17.43719253330033,34.52238165341218 L-17.59824400258253,34.54160496064866 L-17.76089166120329,34.558731061013376 L-17.924950466837153,34.57374047034366 L-18.090233771713326,34.5866161126113 L-18.25655353496264,34.59734333934977 L-18.423720536549457,34.605909946319535 L-18.59154459254505,34.612306187392754 L-18.759834771497633,34.6165247856413 L-18.92839961165283,34.618560941615634 L-19.097047338777436,34.618412338805086 L-19.26558608433873,34.61607914627333 L-19.433824103791025,34.61156401846601 L-19.60156999472119,34.60487209219087 L-19.76863291460491,34.5960109807736 L-19.934822797925996,34.58499076539629 L-20.09995057241166,34.57182398362818 L-20.263828374137844,34.556525615161796 L-20.426269761259753,34.53911306477075 L-20.58708992612459,34.519606142508536 L-20.74610590552501,34.49802704117083 L-20.903136788854226,34.47440031104707 L-21.058003923925863,34.44875283198983 L-21.210531120224466,34.421113782833935 L-21.36054484935535,34.39151460820006 L-21.507874442465827,34.35998898272056 L-21.652352284413137,34.32657277272821 L-21.79381400445824,34.291303995451536 L-21.932098663268448,34.25422277576302 L-22.067048936016228,34.21537130052954 L-22.19851129136579,34.17479377061686 L-22.326336166143886,34.13253635060281 L-22.45037813549607,34.08864711625642 L-22.57049607833485,34.043175999842646 L-22.68655333789146,33.99617473331506 L-22.798417877188697,33.94769678946097 L-22.905962429257798,33.89779732106611 L-23.009064641928596,33.84653309816792 L-23.107607217028125,33.793962443468985 L-23.201478043829383,33.74014516598394 L-23.290570326598377,33.6851424929955 L-23.37478270609438,33.62901700039687 L-23.45401937488514,33.57183254149991 L-23.52819018634586,33.51365417438994 L-23.597210757217965,33.454548087909984 L-23.661002563610943,33.39458152635843 L-23.71949303033803,33.33382271298605 L-23.77261561348416,33.27234077237916 L-23.820309876112198,33.21020565181743 L-23.86252155702132,33.14748804169565 L-23.899202632479344,33.084259295100146 L-23.930311370858778,33.02059134663117 L-23.955812380114377,32.95655663056378 L-23.975676648048275,32.89222799844022 L-23.989881575316822,32.82767863618754 L-23.99841100114157,32.7629819808549 L-24.001255221695228,32.698211637065036 " />
			<path d="M-24.001255221695228,32.69821163706503 L-23.99974931517625,32.65107890211812 L-23.99523250272109,32.60397455816834 L-23.98770750508868,32.55692697911113 L-23.977178855056213,32.509964504648906 L-23.963652894688778,32.46311542322022 L-23.94713777151913,32.41640795495996 L-23.927643433639936,32.36987023470047 L-23.90518162371138,32.32353029502429 L-23.87976587188787,32.277416049378324 L-23.851411487667946,32.231555275259815 L-23.820135550672425,32.18597559748425 L-23.785956900356272,32.14070447154519 L-23.748896124660412,32.09576916707611 L-23.708975547610333,32.05119675142417 L-23.666219215868924,32.0070140733459 L-23.620652884251662,31.963247746834465 L-23.57230400021288,31.91992413508844 L-23.521201687312445,31.87706933463156 L-23.467376727672804,31.83470915959318 L-23.410861543437004,31.79286912615879 L-23.28989827169659,31.71084996709343 L-23.158603283207956,31.631209448773703 L-23.017292879098456,31.55413943218392 L-22.866307488508912,31.479825585744585 L-22.706010848470022,31.408446938020898 L-22.536789127627966,31.340175446427253 L-22.35904999593032,31.275175582966774 L-22.173221642513454,31.213603938003853 L-21.979751744157394,31.155608843024254 L-21.779106386793238,31.10133001329154 L-21.571768942661336,31.05089821126081 L-21.358238905825218,31.004434931560457 L-21.13903068884664,30.96205210830098 L-20.91467238352068,30.923851845415914 L-20.68570448865633,30.88992617068449 L-20.452678607967545,30.86035681402868 L-20.216156121211554,30.835215010618633 L-19.97670683177587,30.814561329260926 L-19.734907593972036,30.798445526483004 L-19.49134092334303,30.78690642666533 L-19.246593593332317,30.779971828510075 L-19.001255221695228,30.77765843807159 L-18.75591685005814,30.779971828510075 L-18.511169520047428,30.78690642666533 L-18.267602849418424,30.798445526483004 L-18.025803611614588,30.814561329260926 L-17.786354322178905,30.835215010618633 L-17.549831835422914,30.86035681402868 L-17.316805954734125,30.88992617068449 L-17.087838059869778,30.923851845415914 L-16.863479754543818,30.96205210830098 L-16.64427153756524,31.004434931560457 L-16.43074150072912,31.050898211260808 L-16.223404056597218,31.10133001329154 L-16.022758699233062,31.15560884302425 L-15.829288800877004,31.213603938003853 L-15.64346044746014,31.27517558296677 L-15.46572131576249,31.34017544642725 L-15.29649959492043,31.408446938020898 L-15.136202954881542,31.479825585744585 L-14.985217564292004,31.55413943218392 L-14.843907160182502,31.631209448773703 L-14.712612171693868,31.71084996709343 L-14.591648899953455,31.79286912615879 L-14.535133715717652,31.834709159593178 L-14.481308756078011,31.87706933463156 L-14.430206443177575,31.91992413508844 L-14.381857559138796,31.963247746834465 L-14.336291227521535,32.00701407334589 L-14.293534895780127,32.05119675142417 L-14.253614318730047,32.09576916707611 L-14.216553543034184,32.14070447154519 L-14.18237489271803,32.18597559748425 L-14.15109895572251,32.231555275259815 L-14.122744571502587,32.277416049378324 L-14.097328819679078,32.32353029502429 L-14.074867009750523,32.36987023470047 L-14.055372671871323,32.41640795495996 L-14.038857548701678,32.46311542322023 L-14.025331588334243,32.509964504648906 L-14.014802938301777,32.55692697911113 L-14.007277940669365,32.60397455816834 L-14.002761128214207,32.65107890211812 L-14.001255221695228,32.698211637065015 " />
			<path d="M-14.001255221695228,32.69821163706503 L-14.003613150363996,32.757186978083176 L-14.010684712439254,32.81610669524239 L-14.022463238225427,32.874915217146565 L-14.038937618553058,32.9335570772758 L-14.060092315256682,32.991976966300825 L-14.085907375829962,33.050119784249176 L-14.116358452244334,33.107930692473914 L-14.15141682391337,33.1653551653759 L-14.191049424781212,33.22233904183075 L-14.235218874509542,33.27882857627208 L-14.283883513733636,33.334770489382805 L-14.336997443354306,33.39011201834664 L-14.394510567828604,33.44480096661249 L-14.45636864241852,33.498785753124764 L-14.522513324353064,33.552015460973145 L-14.592882227855508,33.604439885415964 L-14.667408982983872,33.6560095812319 L-14.74602329822915,33.70667590935525 L-14.828651026812267,33.75639108275098 L-14.915214236617196,33.805108211486036 L-15.005631283694315,33.85278134695462 L-15.099816889264645,33.899365525215586 L-15.19768222015236,33.94481680940117 L-15.299134972569712,33.98909233115695 L-15.404079459175318,34.03215033107411 L-15.51241669932374,34.07395019807568 L-15.624044512421202,34.11445250771975 L-15.73885761429941,34.15361905938351 L-15.856747716516578,34.19141291229293 L-15.977603628491991,34.227798420364316 L-16.101311362377796,34.26274126582462 L-16.227754240569077,34.29620849157901 " />
			<path d="M-24.001255221695228,23.003697386346897 L-23.99974931517625,22.95656465139999 L-23.99523250272109,22.909460307450207 L-23.98770750508868,22.862412728393 L-23.977178855056213,22.81545025393077 L-23.963652894688778,22.768601172502095 L-23.94713777151913,22.721893704241825 L-23.927643433639936,22.67535598398234 L-23.90518162371138,22.629016044306162 L-23.87976587188787,22.582901798660192 L-23.851411487667946,22.537041024541683 L-23.820135550672425,22.49146134676612 L-23.785956900356272,22.446190220827063 L-23.748896124660412,22.401254916357978 L-23.708975547610333,22.35668250070604 L-23.666219215868924,22.312499822627764 L-23.620652884251662,22.268733496116333 L-23.57230400021288,22.225409884370308 L-23.521201687312445,22.182555083913428 L-23.467376727672804,22.14019490887505 L-23.410861543437004,22.09835487544066 L-23.28989827169659,22.0163357163753 L-23.158603283207956,21.93669519805557 L-23.017292879098456,21.859625181465788 L-22.866307488508912,21.785311335026453 L-22.706010848470022,21.713932687302766 L-22.536789127627966,21.645661195709117 L-22.35904999593032,21.580661332248642 L-22.173221642513454,21.51908968728572 L-21.979751744157394,21.461094592306118 L-21.779106386793238,21.40681576257341 L-21.571768942661336,21.35638396054268 L-21.358238905825218,21.309920680842325 L-21.13903068884664,21.267537857582848 L-20.91467238352068,21.229337594697782 L-20.68570448865633,21.195411919966357 L-20.452678607967545,21.165842563310548 L-20.216156121211554,21.1407007599005 L-19.97670683177587,21.120047078542793 L-19.734907593972036,21.10393127576487 L-19.49134092334303,21.092392175947197 L-19.246593593332317,21.085457577791942 L-19.001255221695228,21.083144187353458 L-18.75591685005814,21.085457577791942 L-18.511169520047428,21.092392175947197 L-18.267602849418424,21.10393127576487 L-18.025803611614588,21.120047078542793 L-17.786354322178905,21.1407007599005 L-17.549831835422914,21.165842563310548 L-17.316805954734125,21.195411919966357 L-17.087838059869778,21.229337594697782 L-16.863479754543818,21.267537857582848 L-16.64427153756524,21.309920680842325 L-16.43074150072912,21.356383960542676 L-16.223404056597218,21.40681576257341 L-16.022758699233062,21.461094592306118 L-15.829288800877004,21.51908968728572 L-15.64346044746014,21.58066133224864 L-15.46572131576249,21.645661195709117 L-15.29649959492043,21.713932687302766 L-15.136202954881542,21.785311335026453 L-14.985217564292004,21.859625181465788 L-14.843907160182502,21.93669519805557 L-14.712612171693868,22.0163357163753 L-14.591648899953455,22.09835487544066 L-14.535133715717652,22.140194908875046 L-14.481308756078011,22.182555083913428 L-14.430206443177575,22.225409884370308 L-14.381857559138796,22.268733496116333 L-14.336291227521535,22.312499822627764 L-14.293534895780127,22.356682500706036 L-14.253614318730047,22.401254916357974 L-14.216553543034184,22.44619022082706 L-14.18237489271803,22.491461346766116 L-14.15109895572251,22.53704102454168 L-14.122744571502587,22.58290179866019 L-14.097328819679078,22.62901604430616 L-14.074867009750523,22.67535598398234 L-14.055372671871323,22.721893704241825 L-14.038857548701678,22.768601172502095 L-14.025331588334243,22.81545025393077 L-14.014802938301777,22.862412728393 L-14.007277940669365,22.909460307450207 L-14.002761128214207,22.956564651399987 L-14.001255221695228,23.00369738634688 " />
			<path d="M-24.979032996178095,12.37133653723511 L-24.976172204665378,12.326573924759181 L-24.967596722024563,12.28191914933745 L-24.95332720734445,12.2374797882352 L-24.933398037135767,12.19336289976576 L-24.907857222515137,12.149674765377632 L-24.87676629354209,12.106520633613187 L-24.84020015098777,12.064004466555701 L-24.7982468858924,12.022228689375591 L-24.75100756734627,11.981293943579212 L-24.698595999005438,11.941298844554646 L-24.641138444928743,11.902339743998601 L-24.57877332539664,11.86451049779673 L-24.511650883444627,11.827902239916583 L-24.439932822914596,11.7926031628579 L-24.363791918896123,11.758698305189146 L-24.283411601496145,11.726269346682164 L-24.198985513939764,11.695394411538437 L-24.110717046066753,11.666147880181052 L-24.018818844347624,11.638600210065741 L-23.92351229959965,11.612817765942703 L-23.825027013636998,11.588862659978105 L-23.72360024613984,11.566792602120437 L-23.619476343075014,11.546660761072188 L-23.512906148045186,11.52851563620178 L-23.40414639798462,11.512400940704353 L-23.293459104657444,11.498355496292843 L-23.181110923448347,11.48641313967307 L-23.0673725109664,11.476602641028162 L-22.95251787300958,11.468947634708647 L-22.8368237044608,11.463466562295253 L-22.720568722705714,11.460172628171506 L-22.604032996178095,11.459073767713225 L-22.48749726965048,11.460172628171506 L-22.371242287895388,11.463466562295253 L-22.255548119346614,11.468947634708647 L-22.14069348138979,11.47660264102816 L-22.026955068907842,11.48641313967307 L-21.914606887698746,11.498355496292843 L-21.80391959437157,11.512400940704353 L-21.695159844311007,11.52851563620178 L-21.588589649281175,11.546660761072186 L-21.48446574621635,11.566792602120437 L-21.383038978719192,11.588862659978105 L-21.28455369275654,11.612817765942703 L-21.189247148008565,11.63860021006574 L-21.097348946289436,11.666147880181052 L-21.00908047841643,11.695394411538437 L-20.924654390860045,11.726269346682164 L-20.844274073460067,11.758698305189148 L-20.768133169441594,11.7926031628579 L-20.696415108911562,11.827902239916583 L-20.62929266695955,11.86451049779673 L-20.566927547427447,11.9023397439986 L-20.509469993350752,11.941298844554646 L-20.45705842500992,11.981293943579212 L-20.40981910646379,12.022228689375591 L-20.36786584136842,12.0640044665557 L-20.3312996988141,12.106520633613187 L-20.300208769841053,12.14967476537763 L-20.274667955220423,12.19336289976576 L-20.25473878501174,12.2374797882352 L-20.240469270331626,12.28191914933745 L-20.23189378769081,12.326573924759181 L-20.229032996178095,12.3713365372351 " />
			<path d="M-49.8129607811816,7.300359852244082 L-49.810099989668885,7.255597239768154 L-49.80152450702807,7.210942464346422 L-49.787254992347954,7.166503103244173 L-49.76732582213927,7.122386214774733 L-49.741785007518644,7.078698080386605 L-49.7106940785456,7.03554394862216 L-49.67412793599128,6.993027781564674 L-49.63217467089591,6.951252004384565 L-49.58493535234978,6.910317258588185 L-49.532523784008944,6.870322159563619 L-49.475066229932246,6.831363059007573 L-49.41270111040015,6.793533812805701 L-49.345578668448134,6.756925554925555 L-49.2738606079181,6.721626477866871 L-49.19771970389963,6.687721620198119 L-49.11733938649965,6.655292661691138 L-49.03291329894327,6.62441772654741 L-48.944644831070256,6.595171195190024 L-48.85274662935113,6.567623525074713 L-48.757440084603154,6.541841080951675 L-48.6589547986405,6.5178859749870774 L-48.55752803114335,6.49581591712941 L-48.453404128078525,6.475684076081159 L-48.34683393304869,6.457538951210752 L-48.23807418298813,6.4414242557133266 L-48.127386889660954,6.427378811301816 L-48.015038708451854,6.415436454682044 L-47.901300295969904,6.405625956037134 L-47.786445658013086,6.397970949717619 L-47.67075148946431,6.392489877304224 L-47.55449650770922,6.389195943180478 L-47.4379607811816,6.388097082722198 L-47.321425054653986,6.389195943180478 L-47.205170072898895,6.392489877304224 L-47.08947590435012,6.397970949717619 L-46.9746212663933,6.405625956037134 L-46.86088285391135,6.415436454682044 L-46.74853467270225,6.427378811301816 L-46.63784737937508,6.4414242557133266 L-46.52908762931451,6.457538951210752 L-46.42251743428468,6.475684076081159 L-46.318393531219854,6.49581591712941 L-46.2169667637227,6.5178859749870774 L-46.11848147776005,6.5418410809516745 L-46.02317493301207,6.567623525074713 L-45.93127673129295,6.595171195190024 L-45.84300826341993,6.62441772654741 L-45.75858217586355,6.655292661691137 L-45.678201858463574,6.687721620198119 L-45.6020609544451,6.721626477866871 L-45.53034289391507,6.756925554925555 L-45.46322045196305,6.793533812805701 L-45.40085533243096,6.831363059007573 L-45.34339777835426,6.870322159563618 L-45.29098621001342,6.910317258588185 L-45.243746891467296,6.951252004384564 L-45.20179362637193,6.993027781564673 L-45.1652274838176,7.035543948622159 L-45.13413655484456,7.078698080386603 L-45.10859574022393,7.122386214774732 L-45.08866657001525,7.166503103244174 L-45.07439705533513,7.210942464346422 L-45.06582157269432,7.255597239768154 L-45.0629607811816,7.300359852244074 " />
			<path d="M-81.33102593069913,19.30451222335309 L-81.32921588110696,19.268902744611886 L-81.3237884913027,19.233347543700134 L-81.31475203399765,19.197900815714174 L-81.30212028303255,19.162616590410252 L-81.2859124923827,19.127548649849523 L-81.26615336681012,19.09275044642062 L-81.24287302420713,19.05827502136475 L-81.21610694968925,19.024174923927436 L-81.18589594150677,18.99050213126022 L-81.15228604885807,18.95730796919438 L-81.11532850169891,18.924643034007392 L-81.07507963265512,18.89255711530146 L-81.03160079115742,18.861099120111586 L-80.98495824992946,18.83031699835892 L-80.93522310397144,18.800257669762974 L-80.88247116219335,18.770966952324148 L-80.8267828318632,18.74248949248551 L-80.7682429960459,18.71486869708039 L-80.6429699362701,18.662364133867705 L-80.50741548280546,18.613773261502338 L-80.36240579745565,18.56939222608447 L-80.20882466869193,18.529491516080785 L-80.04760812524007,18.49431431378225 L-79.8797387312794,18.464075013184466 L-79.7062395980228,18.438957913323613 L-79.52816814817535,18.41911609503174 L-79.34660967127516,18.40467048795719 L-79.16267070919464,18.395709133536375 L-78.97747231211541,18.392286648408902 L-78.79214320607974,18.394423891546307 L-78.60781291375991,18.40210783712317 L-78.42560487037242,18.415291653905438 L-78.24662957669332,18.43389499067208 L-78.07197783090488,18.457804465930533 L-77.90271408052344,18.48687435894127 L-77.73986993492615,18.520927497839935 L-77.58443787801605,18.55975633944418 L-77.4373652193444,18.60312423416416 L-77.2995483205567,18.650766868307418 L-77.17182713235002,18.70239387498781 L-77.05498007523745,18.757690603820425 " />
			<path d="M-17.991700864565313,13.161457204189242 L-2.516256094188112,22.077881692067507 " />
			<path d="M-2.51625609418811,22.480086399727192 L-7.943306809945284,23.869811681493466 " />
			<path d="M-6.556556319382208,22.263647287500866 L-6.6536376404763296,22.28502485299191 L-6.757323075975596,22.301192032365172 L-6.8657279215521525,22.311854952592228 L-6.976881687516348,22.316819792315208 L-7.088763916677051,22.31599630496411 L-7.199340910468077,22.30939945918103 L-7.306602695764893,22.29714916673311 L-7.408599560440729,22.279468102859962 L-7.503477493550303,22.25667765867541 L-7.589511885940088,22.229192099197316 L-7.665138878704536,22.197511033195724 L-7.6986119134744095,22.1802744435146 L-7.728983789663071,22.162210331736006 L-7.756116331678673,22.143400879787734 L-7.779886101145923,22.12393166049181 L-7.800184958483854,22.103891248254435 L-7.8169205548823655,22.083370816100445 L-7.830016752439312,22.062463720885376 L-7.839413970546727,22.041265078572337 L-7.845069456950333,22.019871331505882 L-7.846957482249149,21.998379809651546 " />
			<path d="M-7.846957482249149,21.998379809651546 L-7.842960805387072,21.96713078567047 L-7.83100926498383,21.936182706872785 L-7.811217960906882,21.905833620175255 L-7.783777494233517,21.876375803873273 L-7.7489521316582834,21.84809295284111 L-7.707077260460261,21.821257446395187 L-7.658556158540221,21.79612772513235 L-7.603856110633983,21.772945802005676 L-7.543503908104974,21.75193493160739 L-7.478080775655418,21.733297460105145 L-7.408216773814727,21.717212876537786 L-7.334584731112174,21.703836084237793 L-7.257893764370353,21.693295909027512 L-7.178882449522535,21.685693858556064 L-7.098311708722684,21.681103144725196 L-7.016957482249149,21.679567978618635 L-6.9356032557756135,21.681103144725196 L-6.855032514975762,21.685693858556064 L-6.7760212001279445,21.693295909027512 L-6.699330233386124,21.703836084237793 L-6.625698190683571,21.717212876537786 L-6.555834188842879,21.733297460105145 L-6.490411056393324,21.75193493160739 L-6.430058853864314,21.772945802005676 L-6.375358805958077,21.79612772513235 L-6.326837704038036,21.821257446395187 L-6.284962832840014,21.84809295284111 L-6.2501374702647805,21.876375803873273 L-6.222697003591415,21.90583362017525 L-6.202905699514467,21.936182706872785 L-6.190954159111225,21.96713078567047 L-6.186957482249149,21.998379809651542 " />
			<path d="M-6.186957482249149,21.998379809651546 L-6.188522777712658,22.017950389308986 L-6.193212760127548,22.037447152726536 L-6.201009739835515,22.056796562084113 L-6.2118843082173605,22.07592563535115 L-6.225795448616325,22.094762221559918 L-6.242690691044555,22.113235272944294 L-6.262506310089215,22.13127511291746 L-6.285167565271755,22.148813698877802 L-6.338674678726195,22.182124641005434 L-6.402405520894313,22.212666004870805 L-6.475399479421443,22.239977441756412 L-6.556556319382207,22.263647287500866 " />
			<path d="M-0.434048270743812,10.079190273903883 L-0.3233136167971331,10.220288337282803 L-0.21142571793245812,10.35730405250623 L-0.0984580052619739,10.490147497281782 L0.015515381429181074,10.618731487544038 L0.13041964234023729,10.742971634672688 L0.2461793667452945,10.862786400876132 L0.36271858248476274,10.978097152704036 L0.4799608058252698,11.088828212653842 L0.5978290916553108,11.194906908837275 L0.7162460839836922,11.296263622674331 L0.8351340667076368,11.392831834583358 L0.9544150146172259,11.484548167637328 L1.0740106446027073,11.571352429157594 L1.1938424670310563,11.653187650217841 L1.3138318372580846,11.730000123032346 L1.433900007242269,11.801739436203935 L1.5539681772264538,11.868358507808589 L1.673957547453481,11.929813616294915 L1.7937893698818308,11.986064429178251 L1.9133849998673118,12.037074029510533 L2.0326659477769007,12.082808940108595 L2.1515539305008446,12.123239145524973 L2.269970922829225,12.158338111746787 L2.387839208659266,12.188082803609802 L2.5050814319997725,12.212453699916221 L2.62162064773924,12.231434806246284 L2.7373803721442966,12.245013665455277 L2.852284633055353,12.253181365849043 L2.9662580197465065,12.255932547032675 L3.0792257324169894,12.253265403428477 L3.191113631281664,12.245181685460967 L3.301848285228303,12.231686698408085 " />
			<path d="M-14.933197598149674,12.378254773196378 L-14.802935402403142,12.598398898097411 L-14.669831553960588,12.81284988906479 L-14.534034888756599,13.021367948271196 L-14.395697253817515,13.223719912058446 L-14.254973337466971,13.419679511659716 L-14.11202049635434,13.609027626211933 L-13.96699857949945,13.79155252777544 L-13.820069749550376,13.967050118086892 L-13.671398301454099,14.135324156780754 L-13.521150478742893,14.296186480824115 L-13.36949428764179,14.449457214919446 L-13.216599309205005,14.594964972640128 L-13.06263650969141,14.732547048073714 L-12.90777804939108,14.86204959775873 L-12.75219709011667,14.983327812711519 L-12.596067601574916,15.096246080350777 L-12.439564166834717,15.200678136138757 L-12.28286178710941,15.296507204769512 L-12.12613568607142,15.383626130746357 L-11.969561113918214,15.461937498202508 L-11.813313151408558,15.531353739830925 L-11.735366266990038,15.56270154096631 L-11.657566514088245,15.591797234801563 L-11.579935643029007,15.618632687110065 L-11.502495356924207,15.64320039555652 L-11.425267305604255,15.665493491794386 L-11.348273079565487,15.685505743386036 L-11.271534203934166,15.703231555545159 L-11.195072132448741,15.718665972700864 L-11.118908241462051,15.731804679883123 L-11.043063823965205,15.742644003929078 L-10.967560083634728,15.751180914509957 L-10.892418128904675,15.757413024978247 L-10.817658967065421,15.761338593034925 L-10.743303498390674,15.76295652121655 L-10.66937251029442,15.762266357202087 L-10.59588667151943,15.759268293939348 L-10.522866526358962,15.753963169591051 L-10.450332488913201,15.74635246730052 L-10.378304837382146,15.736438314777006 L-10.306803708396462,15.724223483700882 L-10.235849091387937,15.709711388948751 L-10.165460823001107,15.692906087638773 " />
			<path d="M3.301848285228357,12.2316866984082 L9.832060978092183,15.994172961624358 " />
			<path d="M-0.4340482707438156,10.079190273903922 L3.301848285228357,12.2316866984082 " />
			<path d="M-6.964260963607756,6.316704010687703 L-0.4340482707438156,10.079190273903922 " />
			<path d="M-6.964260963607756,-7.994245597515264 L-6.964260963607756,6.3167040106877 " />
			<path d="M-1.8887541681469102,-9.2939497058533 L-6.964260963607757,-7.994245597515265 " />
			<path d="M-1.8887541681469102,-9.2939497058533 L14.90756777355303,0.3835192450833542 " />
			<path d="M14.907567773553033,0.3835192450833551 L14.907567773553033,14.69446885328632 " />
			<path d="M14.907567773553033,14.69446885328632 L9.832060978092187,15.994172961624356 " />
			<path d="M-1.8887541681469102,5.016999902349665 L-6.964260963607757,6.316704010687701 " />
			<path d="M-1.8887541681469102,5.016999902349665 L14.90756777355303,14.69446885328632 " />
			<path d="M-1.8887541681469102,-9.2939497058533 L-1.8887541681469102,5.016999902349664 " />
			<path d="M-7.095237778691124,26.982709554086703 L-7.095237778691124,36.67722380480484 " />
			<path d="M-17.095237778691125,34.47374608702501 L-17.095237778691125,36.67722380480484 " />
			<path d="M-14.00125522169523,23.003697386346897 L-14.00125522169523,32.698211637065036 " />
			<path d="M-24.001255221695228,23.003697386346893 L-24.001255221695228,32.69821163706503 " />
			<path d="M-20.22903299617809,12.37133653723511 L-20.22903299617809,16.791194462815405 " />
			<path d="M-24.97903299617809,12.371336537235107 L-24.97903299617809,14.054406154249751 " />
			<path d="M-45.0629607811816,7.300359852244085 L-45.0629607811816,10.565373937492598 " />
			<path d="M-49.8129607811816,7.300359852244085 L-49.8129607811816,11.781724296855108 " />
			<path d="M-81.33102593069913,19.304512223353093 L-81.33102593069913,19.852673743387047 " />
			<path d="M1.9837439058118902,12.58181355335237 L1.9837439058118902,29.589440384108734 " />
			<path d="M-2.51625609418811,13.734145472748434 L-2.51625609418811,26.996693565467595 " />
			<path d="M3.3169820385392788,12.240406251908421 L-10.16546082300107,15.692906087638764 " />
			<path d="M-6.964260963607756,-2.5721381279255784 L-12.289382847369957,-1.208514145406983 " />

       </g>
    </g>
    
</svg>
